<?xml version="1.0" encoding="UTF-8"?>
<svg width="64" height="64" version="1.1" viewBox="0 0 32 32" xmlns="http://www.w3.org/2000/svg" xmlns:xlink="http://www.w3.org/1999/xlink"><style><![CDATA[.B{color-interpolation-filters:sRGB}.C{fill-opacity:1}.D{stroke:none}.E{fill:#020204}.F{stroke-linejoin:miter}.G{stroke-opacity:1}.H{stroke-width:1}.I{stroke-linecap:butt}.J{fill:#7c7c7c}]]></style><defs><radialGradient id="A" cx="223.2" cy="137.66" r="14.572" gradientTransform="matrix(1.0858 -.034312 .039438 1.248 -154.54 -26.543)" xlink:href="#Ac"><stop stop-color="#fefefc" offset="0"/><stop stop-color="#fefefc" offset=".757"/><stop stop-color="#d4d4d4" offset="1"/></radialGradient><radialGradient id="B" cx="223.2" cy="137.66" r="14.572" gradientTransform="matrix(.81524 -.034312 .029611 1.248 -129.44 -26.543)" xlink:href="#Ac"><stop stop-color="#fefefc" offset="0"/><stop stop-color="#fefefc" offset=".757"/><stop stop-color="#d4d4d4" offset="1"/></radialGradient><linearGradient id="C" xlink:href="#Ac"><stop stop-color="#3e2a06" offset="0"/><stop stop-color="#ad780a" offset="1"/></linearGradient><linearGradient id="D" x1="447.11" x2="489.18" y1="364.09" y2="300.83" xlink:href="#C"/><linearGradient id="E" x1="442.04" x2="490.12" y1="371.54" y2="293.58" xlink:href="#C"/><clipPath id="F"><path class="C D" d="M137.577 281.02c1.6-.663 3.398-.784 5.1-.47s3.31 1.05 4.743 2.022c2.864 1.946 4.988 4.778 7.023 7.58 4.672 6.434 9.17 13.002 13.245 19.83 3.306 5.538 6.344 11.257 10.164 16.453 2.494 3.392 5.307 6.54 7.813 9.922s4.728 7.056 5.84 11.117c1.444 5.277.885 11.093-1.627 15.953-1.767 3.42-4.476 6.352-7.772 8.34s-7.17 3.014-11.016 2.87c-6.114-.23-11.7-3.285-17.384-5.55-11.58-4.612-24.16-6.06-36.097-9.652-3.67-1.104-7.276-2.41-10.97-3.426-1.64-.45-3.31-.848-4.86-1.55s-3-1.75-3.862-3.217c-.666-1.134-.948-2.47-.93-3.786s.326-2.615.774-3.852c.896-2.474 2.343-4.714 3.32-7.157 1.595-3.99 1.882-8.388 1.667-12.68s-.91-8.545-1.205-12.83c-.13-1.914-.18-3.853.185-5.736s1.176-3.725 2.558-5.055c1.274-1.227 2.965-1.955 4.696-2.317s3.515-.377 5.284-.338 3.54.134 5.304-.01 3.533-.54 5.07-1.418c1.46-.834 2.654-2.075 3.644-3.434s1.79-2.846 2.61-4.314 1.668-2.932 2.742-4.226 2.39-2.423 3.943-3.067" fill="#402c07"/></clipPath><filter id="G" class="B" x="-.10752" y="-.1085" width="1.215" height="1.217"><feGaussianBlur stdDeviation="3.924"/></filter><filter id="H" class="B" x="-.07538" y="-.069738" width="1.1508" height="1.1395"><feGaussianBlur stdDeviation="2.437"/></filter><filter id="I" class="B" x="-.033742" y="-.018603" width="1.0675" height="1.0372"><feGaussianBlur stdDeviation=".37"/></filter><clipPath id="J"><path class="F G" d="M248.06 184.612s-5.106 6.345-7.897 10.247-5.737 6.65-8.587 10.75-7.365 9.432-9.45 13.93-2.32 9.036-4.265 13.85-3.7 10.642-5.97 15.336-5.37 9.685-6.94 13.536-3.81 5.724-4.108 10.22-.577 8.317 3.772 16.772 17.236 22.007 24.242 27.925 9.39 7.225 14.602 8.526 13.856 2.998 16.73-1.27 2.272-5.965-.75-10.666-4.825-5.302-9.796-9.573-18.637-14.873-22.682-19.24-7.107-3.412-5.53-6.284-2.207-4.01-2.658-7.693c-.764-6.245.944-18.7 1.46-22.133s1.224-2.924 3.518-8.04 4.124-8.624 7.05-13.467 8.625-10.128 11.15-15.278 3.504-10.72 4.362-15.318 1.746-12.13 1.746-12.13z" fill="none" stroke="#729fcf" stroke-width=".125"/></clipPath><filter id="K" class="B" x="-.10102" y="-.042665" width="1.202" height="1.0853"><feGaussianBlur stdDeviation="1.132"/></filter><clipPath id="L"><path class="F G H I" d="M386.188 285.328c-.405-1.104-1.118-2.082-1.99-2.87s-1.9-1.392-2.983-1.852c-2.165-.92-4.52-1.26-6.832-1.696l-6.528-1.277c-2.27-.386-4.618-.632-6.865-.125-1.966.443-3.784 1.46-5.272 2.82s-2.65 3.056-3.485 4.9c-1.472 3.23-1.935 6.865-1.654 10.403.21 2.633.875 5.346 2.61 7.34 1.4 1.61 3.387 2.615 5.434 3.22 3.525 1.043 7.367.988 10.86-.155a28.59 28.59 0 0 0 14.33-10.779c1.14-1.65 2.112-3.448 2.553-5.403.336-1.5.348-3.08-.178-4.515" fill="none" stroke="#ce5c00"/></clipPath><filter id="M" class="B" x="-.070435" y="-.15057" width="1.1409" height="1.3011"><feGaussianBlur stdDeviation="1.025"/></filter><clipPath id="N"><path class="F G H I" d="M386.188 285.328c-.405-1.104-1.118-2.082-1.99-2.87s-1.9-1.392-2.983-1.852c-2.165-.92-4.52-1.26-6.832-1.696l-6.528-1.277c-2.27-.386-4.618-.632-6.865-.125-1.966.443-3.784 1.46-5.272 2.82s-2.65 3.056-3.485 4.9c-1.472 3.23-1.935 6.865-1.654 10.403.21 2.633.875 5.346 2.61 7.34 1.4 1.61 3.387 2.615 5.434 3.22 3.525 1.043 7.367.988 10.86-.155a28.59 28.59 0 0 0 14.33-10.779c1.14-1.65 2.112-3.448 2.553-5.403.336-1.5.348-3.08-.178-4.515" fill="none" stroke="#ce5c00"/></clipPath><filter id="O" class="B" x="-.20046" y="-.23411" width="1.4009" height="1.4682"><feGaussianBlur stdDeviation="2.844"/></filter><filter id="P" class="B" x="-.091421" y="-.10676" width="1.1828" height="1.2135"><feGaussianBlur stdDeviation="1.297"/></filter><filter id="Q" class="B" x="-.4322" y="-.28961" width="1.8644" height="1.5792"><feGaussianBlur stdDeviation=".86"/></filter><filter id="R" class="B" x="-.5798" y="-.48602" width="2.1596" height="1.972"><feGaussianBlur stdDeviation="2.64"/></filter><filter id="S" class="B" x="-.076233" y="-.068208" width="1.1525" height="1.1364"><feGaussianBlur stdDeviation="2.209"/></filter><clipPath id="T"><path class="C D" d="M516.006 331.876c.91 1.597-1.57 3.388-2.816 4.738-2.742 2.973-6.45 4.902-9.896 7.02-5.914 3.635-12.62 5.903-18.42 9.717-3.883 2.553-7.328 5.722-10.86 8.742-3.022 2.584-5.482 5.876-8.832 8.018s-7.044 4.154-10.99 4.65c-4.783.6-9.872-.256-14.3-2.164-3.095-1.334-6.16-3.38-7.963-6.23-1.813-2.865-2.06-6.538-2.233-9.924-.307-6.06 1.363-12.06 2.178-18.073.68-5.002 1.853-9.943 2.26-14.975.74-9.142-.78-18.408.32-27.513.355-2.937-.18-6.66 2.012-8.644 2.038-1.845 5.43-1.12 8.18-1.063 3.345.07 6.632.95 9.89 1.717 2.056.483 3.998 1.41 6.072 1.81 3.44.663 6.966 1.066 10.467.952 3.785-.124 7.437-1.796 11.224-1.765 1.552.013 3.124.282 4.586.8 1.483.525 2.988 1.206 4.123 2.295.865.83 1.43 1.957 1.88 3.07.672 1.662.894 3.478 1.167 5.25.242 1.574-.153 3.27.414 4.76 1.83 4.8 5.577 8.727 9.225 12.343 1.743 1.935 4.03 3.534 6.167 4.828 2.27 1.374 4.368 2.45 5.463 4.816.66 1.485-.544 3.76.683 4.826z" fill="url(#E)"/></clipPath><clipPath id="U"><path class="C D" d="M516.006 331.876c.91 1.597-1.57 3.388-2.816 4.738-2.742 2.973-6.45 4.902-9.896 7.02-5.914 3.635-12.62 5.903-18.42 9.717-3.883 2.553-7.328 5.722-10.86 8.742-3.022 2.584-5.482 5.876-8.832 8.018s-7.044 4.154-10.99 4.65c-4.783.6-9.872-.256-14.3-2.164-3.095-1.334-6.16-3.38-7.963-6.23-1.813-2.865-2.06-6.538-2.233-9.924-.307-6.06 1.363-12.06 2.178-18.073.68-5.002 1.853-9.943 2.26-14.975.74-9.142-.78-18.408.32-27.513.355-2.937-.18-6.66 2.012-8.644 2.038-1.845 5.43-1.12 8.18-1.063 3.345.07 6.632.95 9.89 1.717 2.056.483 3.998 1.41 6.072 1.81 3.44.663 6.966 1.066 10.467.952 3.785-.124 7.437-1.796 11.224-1.765 1.552.013 3.124.282 4.586.8 1.483.525 2.988 1.206 4.123 2.295.865.83 1.43 1.957 1.88 3.07.672 1.662.894 3.478 1.167 5.25.242 1.574-.153 3.27.414 4.76 1.83 4.8 5.577 8.727 9.225 12.343 1.743 1.935 4.03 3.534 6.167 4.828 2.27 1.374 4.368 2.45 5.463 4.816.66 1.485-.544 3.76.683 4.826z" fill="url(#E)"/></clipPath><filter id="V" class="B" x="-.14502" y="-.14301" width="1.29" height="1.286"><feGaussianBlur stdDeviation="4.779"/></filter><clipPath id="W"><path class="C D" d="M511.827 331.9c.795 1.296-1.374 2.75-2.464 3.845-2.4 2.413-5.644 3.978-8.66 5.697-5.174 2.95-11.04 4.8-16.116 7.885-3.397 2.072-6.41 4.644-9.502 7.094-2.644 2.097-4.796 4.77-7.728 6.506s-6.163 3.37-9.616 3.774c-4.185.488-8.637-.208-12.5-1.756-2.708-1.083-5.4-2.744-6.967-5.055-1.586-2.325-1.803-5.305-1.953-8.053-.27-4.918 1.192-9.787 1.906-14.666.594-4.06 1.62-8.07 1.977-12.152.647-7.418-.682-14.938.28-22.327.3-2.383-.158-5.404 1.76-7.014 1.783-1.497 4.75-.9 7.156-.862 2.927.058 5.803.772 8.652 1.393 1.8.392 3.498 1.145 5.313 1.47 3 .538 6.094.865 9.158.772 3.312-.1 6.506-1.458 9.82-1.432 1.358.01 2.733.23 4.013.65 1.297.426 2.614.98 3.607 1.862.757.674 1.25 1.588 1.644 2.5.588 1.35.782 2.822 1.02 4.26.212 1.277-.134 2.655.363 3.862 1.6 3.895 4.88 7.082 8.07 10.016 1.525 1.57 3.526 2.868 5.396 3.918 1.985 1.115 3.82 1.988 4.78 3.908.577 1.205-.476 3.052.598 3.917z" fill="url(#D)"/></clipPath><filter id="X" class="B" x="-.11532" y="-.12496" width="1.2306" height="1.2499"><feGaussianBlur stdDeviation="3.173"/></filter><filter id="Y" class="B" x="-.020891" y="-.12913" width="1.0418" height="1.2583"><feGaussianBlur stdDeviation=".479"/></filter><filter id="Z" class="B" x="-.17758" y="-.15947" width="1.3552" height="1.3189"><feGaussianBlur stdDeviation=".901"/></filter><filter id="a" class="B" x="-.81708" y="-.05781" width="2.6342" height="1.1156"><feGaussianBlur stdDeviation="1.446"/></filter><linearGradient id="b" xlink:href="#Ac"><stop offset="0"/><stop stop-opacity=".25" offset="1"/></linearGradient><filter id="c" class="B" x="-.086848" y="-.081235" width="1.1737" height="1.1625"><feGaussianBlur stdDeviation=".785"/></filter><filter id="d" class="B" x="-.050782" y="-.073254" width="1.1016" height="1.1465"><feGaussianBlur stdDeviation="1.138"/></filter><filter id="e" class="B" x="-.049888" y="-.046193" width="1.0998" height="1.0924"><feGaussianBlur stdDeviation=".643"/></filter><clipPath id="f"><path class="F G H I" d="M304.847 225.45c6.016 4.923 9.777 12.317 10.943 20.003 1.825 12.03-2.346 24.075-6.446 35.533-.817 2.285-1.64 4.6-1.965 6.995s-.12 4.948 1.03 7.086c1.303 2.425 3.732 4.125 6.367 4.923 2.59.784 5.394.76 8.015.092s5.06-1.968 7.187-3.64c5.48-4.3 8.758-10.986 10-17.844s.64-13.93-.55-20.798c-1.623-9.37-4.31-18.54-7.74-27.408-2.518-6.507-5.468-12.91-9.618-18.52-4.046-5.47-9.162-10.1-13.103-15.635-2.732-3.844-4.9-8.13-8.192-11.508-1.646-1.69-3.577-3.135-5.77-4s-4.664-1.124-6.933-.482c-1.505.426-2.892 1.237-4.038 2.3s-2.053 2.376-2.693 3.803c-1.28 2.853-1.477 6.112-.965 9.198.66 3.983 2.444 7.693 4.466 11.19 2.274 3.932 4.918 7.72 8.384 10.654 3.6 3.047 7.962 5.074 11.61 8.06" fill="none" stroke="#c17d11"/></clipPath><filter id="g" class="B" x="-.11752" y="-.040044" width="1.235" height="1.0801"><feGaussianBlur stdDeviation="1.352"/></filter><clipPath id="h"><path class="C D" d="M54.232 122.362c-3.792 4.79-8.518 11.69-8.193 17.25s3.86 13.935 8.375 16 5.754.013 8.33-2.5 3.86-7.348 4.006-12.25-3.035-11.92-5.44-15.25-3.287-8.04-7.08-3.25z" fill="url(#B)"/></clipPath><filter id="i" class="B" x="-.1554" y="-.22082" width="1.3108" height="1.4416"><feGaussianBlur stdDeviation=".899"/></filter><filter id="j" class="B" x="-.034389" y="-.079362" width="1.0688" height="1.1587"><feGaussianBlur stdDeviation=".758"/></filter><filter id="k" class="B" x="-.161" y="-.13035" width="1.322" height="1.2607"><feGaussianBlur stdDeviation=".849"/></filter><linearGradient id="l" xlink:href="#Ac"><stop stop-color="#3a2903" offset="0"/><stop stop-color="#735208" offset=".555"/><stop stop-color="#ac8c04" offset="1"/></linearGradient><filter id="m" class="B" x="-.046608" y="-.088805" width="1.0932" height="1.1776"><feGaussianBlur stdDeviation=".11"/></filter><filter id="n" class="B" x="-.11608" y="-.10528" width="1.2322" height="1.2106"><feGaussianBlur stdDeviation=".11"/></filter><filter id="o" class="B" x="-.12147" y="-.13608" width="1.2429" height="1.2722"><feGaussianBlur stdDeviation=".264"/></filter><filter id="p" class="B" x="-.23463" y="-.14619" width="1.4693" height="1.2924"><feGaussianBlur stdDeviation=".513"/></filter><linearGradient id="q" xlink:href="#Ac"><stop stop-color="#646464" stop-opacity="0" offset="0"/><stop stop-color="#646464" stop-opacity=".583" offset=".306"/><stop stop-color="#646464" offset=".47"/><stop stop-color="#646464" stop-opacity=".257" offset=".728"/><stop stop-color="#646464" stop-opacity="0" offset="1"/></linearGradient><filter id="r" class="B" x="-.022588" y="-.0257" width="1.0452" height="1.0514"><feGaussianBlur stdDeviation=".135"/></filter><filter id="s" class="B" x="-.023151" y="-.025088" width="1.0463" height="1.0502"><feGaussianBlur stdDeviation=".148"/></filter><clipPath id="t"><path class="C D" d="M85.75 122.362c-2.547 2.127-5.208 4.6-6.25 7.75-1.31 3.96-1.633 8.917.5 12.5 3.92 6.582 12.384 13.85 19.75 11.75 4.875-1.39 6.107-8.5 7-13.5.59-3.307.596-7.193-1.25-10-3.612-5.493-10.427-9.894-17-10-1.044-.017-1.95.83-2.75 1.5z" fill="url(#A)"/></clipPath><filter id="u" class="B" x="-.15799" y="-.20918" width="1.316" height="1.4184"><feGaussianBlur stdDeviation=".249"/></filter><filter id="v" class="B" x="-.17853" y="-.18115" width="1.3571" height="1.3623"><feGaussianBlur stdDeviation=".519"/></filter><filter id="w" class="B" x="-.2921" y="-.3082" width="1.5842" height="1.6164"><feGaussianBlur stdDeviation="1.74"/></filter><filter id="x" class="B" x="-.054176" y="-.10741" width="1.1084" height="1.2148"><feGaussianBlur stdDeviation="1.361"/></filter><filter id="y" class="B" x="-.036539" y="-.074067" width="1.0731" height="1.1481"><feGaussianBlur stdDeviation=".932"/></filter><filter id="z" class="B" x="-.076391" y="-.12921" width="1.1528" height="1.2584"><feGaussianBlur stdDeviation="2.036"/></filter><radialGradient id="AA" cx="223.2" cy="137.66" r="14.572" gradientTransform="matrix(.81524 -.034312 .029611 1.248 -208.44 -35.543)" xlink:href="#Ac"><stop stop-color="#fefefc" offset="0"/><stop stop-color="#fefefc" offset=".757"/><stop stop-color="#d4d4d4" offset="1"/></radialGradient><radialGradient id="AB" cx="223.2" cy="137.66" r="14.572" gradientTransform="matrix(1.0858 -.034312 .039438 1.248 -233.54 -35.543)" xlink:href="#Ac"><stop stop-color="#fefefc" offset="0"/><stop stop-color="#fefefc" offset=".757"/><stop stop-color="#d4d4d4" offset="1"/></radialGradient><radialGradient id="AC" cx="275.54" cy="150.65" r="15.382" gradientTransform="matrix(.69785 -.50717 .46034 .63341 -271.1 183.03)" xlink:href="#Ac"><stop stop-color="#020204" offset="0"/><stop stop-color="#020204" offset=".734"/><stop stop-color="#5c5c5c" offset="1"/></radialGradient><linearGradient id="AD" x1="303.02" x2="309.73" y1="132.77" y2="140.72" xlink:href="#Ac"><stop stop-color="#949494" stop-opacity=".392" offset="0"/><stop stop-color="#949494" offset=".5"/><stop stop-color="#949494" stop-opacity=".392" offset="1"/></linearGradient><linearGradient id="AE" x1="87.25" x2="108.62" y1="119.99" y2="132.49" xlink:href="#Ac"><stop stop-color="#747474" offset="0"/><stop stop-color="#8c8c8c" offset=".125"/><stop stop-color="#a4a4a4" offset=".25"/><stop stop-color="#d4d4d4" offset=".5"/><stop stop-color="#d4d4d4" offset=".619"/><stop stop-color="#7c7c7c" offset="1"/></linearGradient><linearGradient id="AF" x1="15.51" x2="29.741" y1="105.56" y2="119" xlink:href="#q"/><linearGradient id="AG" x1="-25.773" x2="-12.373" y1="106.67" y2="119.57" xlink:href="#q"/><linearGradient id="AH" x1="164.05" x2="169.88" y1="132.06" y2="142.49" xlink:href="#Ac"><stop stop-color="#757574" stop-opacity="0" offset="0"/><stop stop-color="#757574" offset=".263"/><stop stop-color="#757574" offset=".5"/><stop stop-color="#757574" stop-opacity="0" offset="1"/></linearGradient><radialGradient id="AI" cx="294.48" cy="193.1" r="31.111" gradientTransform="matrix(.93619 -.3864 .27133 .65739 -244.48 146.72)" xlink:href="#Ac"><stop stop-color="#d2940a" offset="0"/><stop stop-color="#d89c08" offset=".751"/><stop stop-color="#b67e07" offset=".866"/><stop stop-color="#946106" offset="1"/></radialGradient><linearGradient id="AJ" x1="46.857" x2="103.34" y1="158.31" y2="157.87" xlink:href="#Ac"><stop stop-color="#ad780a" offset="0"/><stop stop-color="#d89e08" offset=".12"/><stop stop-color="#edb80b" offset=".255"/><stop stop-color="#ebc80d" offset=".392"/><stop stop-color="#f5d838" offset=".527"/><stop stop-color="#f6d811" offset=".769"/><stop stop-color="#f5cd31" offset="1"/></linearGradient><radialGradient id="AK" cx="77.672" cy="147.09" r="3.23" gradientTransform="matrix(1 0 0 .58333 -3.4575e-5 61.416)" xlink:href="#l"/><radialGradient id="AL" cx="63.125" cy="147.44" r="1.535" gradientTransform="matrix(1 0 0 1.0751 0 -11.094)" xlink:href="#l"/><linearGradient id="AM" x1="243.03" x2="243.47" y1="157.02" y2="159.77" xlink:href="#Ac"><stop stop-color="#f5ce2d" offset="0"/><stop stop-color="#d79b08" offset="1"/></linearGradient><radialGradient id="AN" cx="268.07" cy="126.54" r="35.511" gradientTransform="matrix(.20141 -.033161 .03065 .18616 -3.1264 114.04)" xlink:href="#Ac"><stop stop-color="#c8c8c8" offset="0"/><stop stop-color="#797978" offset="1"/></radialGradient><radialGradient id="AO" cx="336.22" cy="220.54" r="27.391" gradientTransform="matrix(-.69844 0 0 .76336 166.31 50.22)" xlink:href="#Ac"><stop offset="0"/><stop stop-opacity=".25" offset="1"/></radialGradient><radialGradient id="AP" cx="312.14" cy="236.37" r="27.391" gradientTransform="matrix(1 0 0 .76336 -289 41.22)" xlink:href="#b"/><radialGradient id="AQ" cx="275.55" cy="225.14" r="10.845" gradientTransform="matrix(1 0 0 1.0692 -289 -23.86)" xlink:href="#b"/><linearGradient id="AR" x1="28.286" x2="31.982" y1="323.9" y2="351.49" xlink:href="#Ac"><stop offset="0"/><stop stop-opacity="0" offset="1"/></linearGradient><linearGradient id="AS" x1="442.04" x2="490.12" y1="371.54" y2="293.58" xlink:href="#Ac"><stop stop-color="#3e2a06" offset="0"/><stop stop-color="#ad780a" offset="1"/></linearGradient><linearGradient id="AT" x1="45.164" x2="43.75" y1="289.59" y2="302.32" xlink:href="#Ac"><stop stop-color="#f3cd0c" offset="0"/><stop stop-color="#f3cd0c" stop-opacity="0" offset="1"/></linearGradient><radialGradient id="AU" cx="363.34" cy="303.42" r="16.846" gradientTransform="matrix(1.3082 .35053 -.36795 1.3732 -310.51 -240.35)" xlink:href="#Ac"><stop stop-color="#110800" offset="0"/><stop stop-color="#a65a00" stop-opacity=".8" offset=".591"/><stop stop-color="#ff921e" stop-opacity="0" offset="1"/></radialGradient><radialGradient id="AW" cx="382.24" cy="246.86" r="20.538" gradientTransform="matrix(.36025 .1568 -.072468 .16649 260.62 181.94)" xlink:href="#Ac"><stop stop-color="#7c7c7c" offset="0"/><stop stop-color="#7c7c7c" stop-opacity=".33" offset="1"/></radialGradient><linearGradient id="AX" x1="358.5" x2="361.5" y1="279.36" y2="279.24" xlink:href="#Ac"><stop stop-color="#7c7c7c" offset="0"/><stop stop-color="#7c7c7c" stop-opacity=".33" offset="1"/></linearGradient><linearGradient id="AY" x1="123.13" x2="170.86" y1="301.54" y2="381.62" xlink:href="#Ac"><stop stop-color="#b98309" offset="0"/><stop stop-color="#382605" offset="1"/></linearGradient><linearGradient id="AZ" x1="171.04" x2="186.07" y1="322.22" y2="350.51" xlink:href="#Ac"><stop stop-color="#ebc40c" offset="0"/><stop stop-color="#ebc40c" stop-opacity="0" offset="1"/></linearGradient><path id="Aa" d="M71.484 295.64c-.563-1.102-1.587-1.926-2.73-2.403s-2.397-.63-3.634-.62c-2.475.02-4.935.664-7.4.45-2.083-.18-4.06-.963-6.1-1.457-2.097-.5-4.322-.7-6.405-.143-2.226.606-4.19 2.094-5.42 4.045-1.084 1.72-1.6 3.753-1.76 5.78s.013 4.066.218 6.09c.148 1.464.314 2.93.668 4.36s.904 2.823 1.766 4.015c1.24 1.716 3.083 2.94 5.07 3.675a14.09 14.09 0 0 0 10.132-.177c5.66-2.457 10.45-6.864 13.37-12.3 1.045-1.946 1.857-4.02 2.382-6.165.208-.853.372-1.722.38-2.6s-.147-1.77-.546-2.55z"/><path id="Ab" d="M362.22 276.456a13.48 13.48 0 0 0-1.625.188c-3.47.617-6.647 2.81-8.437 5.844a12.38 12.38 0 0 0-1.656 7.156c.073-1.742.53-3.447 1.375-4.97 1.434-2.582 4.032-4.53 6.938-5.062 1.8-.328 3.632-.13 5.438.094 1.733.216 3.48.443 5.188.813 2.64.572 5.254 1.45 7.47 3 .516.36 1 .77 1.406 1.25s.722 1.038.844 1.656c.178.904-.08 1.853-.53 2.656s-1.065 1.507-1.72 2.156c-.53.526-1.095 1.034-1.656 1.53 2.56-.496 5.152-1.198 7.28-2.687.9-.63 1.715-1.385 2.25-2.344s.762-2.12.5-3.187c-.177-.72-.57-1.382-1.062-1.937s-1.08-1.012-1.687-1.437c-2.68-1.877-5.815-3.08-9.062-3.47-2.08-.383-4.18-.706-6.28-.97-1.643-.206-3.32-.373-4.97-.28z"/><linearGradient id="Ac" gradientUnits="userSpaceOnUse"/></defs><g transform="matrix(.10711 0 0 .10711 16.035 -7.1753)"><g class="E"><path d="M61.524 172.734c3.256 7.09 6.89 14.003 10.12 21.106 6.216 13.67 10.937 28.103 12.898 42.99S85.65 267.09 81 281.364c-5.258 16.113-15.24 30.448-27.47 42.18-14.468 13.88-33.04 24.58-53.074 25.37-13.054.514-26.05-3.218-37.61-9.303-9.715-5.113-18.584-11.927-25.66-20.32s-12.33-18.387-14.763-29.093c-2.996-13.183-1.64-27.178 2.894-39.914 3.243-9.108 8.05-17.588 11.472-26.63 3.74-9.88 5.828-20.43 10.783-29.76 4.49-8.46 11.226-15.686 14.804-24.57 2.137-5.306 3.064-11.005 4.444-16.557s3.312-11.144 7.07-15.457c4.53-5.197 11.343-8.014 18.19-8.805s13.778.277 20.498 1.81c5.35 1.22 10.635 2.735 15.805 4.574 4.413 1.57 8.786 3.398 12.602 6.114 5.2 3.7 9.16 8.91 12.315 14.458s5.57 11.475 8.234 17.274z"/><path d="M4.036 349.04c5.5.32 10.99.854 16.44 1.677a165.46 165.46 0 0 1 14.26 2.812c7.377 1.788 14.728 4.068 22.316 4.284 1.997.057 4-.032 5.96-.466s3.842-1.225 5.405-2.47c2.33-1.857 3.8-4.658 4.357-7.587s.208-5.976-.65-8.83c-1.715-5.706-5.4-10.575-8.437-15.696-1.745-2.932-3.3-5.98-5.19-8.82s-4.15-5.5-7.02-7.35c-3.968-2.558-8.888-3.392-13.585-2.924s-9.2 2.165-13.392 4.336c-5.876 3.042-11.407 7.22-14.61 13.01-1.115 2.015-1.925 4.18-2.872 6.28s-2.056 4.166-3.66 5.818c-1.79 1.842-4.112 3.084-5.963 4.863-.925.9-1.735 1.925-2.2 3.118s-.592 2.556-.16 3.765c.297.83.84 1.558 1.51 2.13s1.462.99 2.293 1.28c1.66.584 3.45.67 5.207.772z"/><path d="M-12.313 348.685c-4.584.106-9.12.926-13.6 1.854-4.292.887-8.564 1.875-12.804 2.988-7.154 1.878-14.317 4.127-21.712 4.284-1.946.04-3.906-.065-5.803-.504s-3.733-1.22-5.255-2.434c-2.325-1.854-3.803-4.65-4.35-7.572s-.213-5.964.635-8.814c1.697-5.7 5.336-10.58 8.316-15.726 1.693-2.925 3.187-5.966 5.018-8.807s4.036-5.507 6.86-7.364c3.848-2.53 8.647-3.387 13.23-2.936s8.975 2.14 13.017 4.348c5.706 3.117 10.917 7.406 14.216 13 2.315 3.93 3.65 8.425 6.356 12.098 1.457 1.978 3.3 3.686 4.5 5.823.606 1.068 1.05 2.245 1.153 3.47s-.15 2.498-.84 3.515c-.455.673-1.087 1.217-1.793 1.618s-1.485.665-2.28.83c-1.6.332-3.23.28-4.855.32zM-37.927 157.8c-.644-7.75-.5-15.543-.78-23.315-.278-7.473-.966-14.942-.715-22.416.256-7.6 1.53-15.3 4.914-22.13s8.88-12.608 15.585-16.222c6.3-3.4 13.566-4.853 20.734-4.775 9.72.106 19.464 3.042 27.334 8.744C34.08 81.258 38.23 85.863 41.504 91c2.793 4.385 4.963 9.174 6.325 14.2 2.793 10.3 2.13 21.148 2.674 31.796.515 10.092 2.13 20.16 1.58 30.25-.12 2.2-.356 4.434-1.333 6.4-.952 1.915-2.568 3.455-4.425 4.517s-3.947 1.666-6.06 1.992c-4.227.652-8.55.222-12.808.617-6.18.573-12.075 2.865-18.208 3.814-7.3 1.13-14.757.33-22.148.034-2.96-.118-5.93-.155-8.868-.524s-5.87-1.08-8.484-2.474c-1.6-.858-3.093-1.975-4.295-3.35s-2.12-3-2.577-4.777c-.687-2.653-.325-5.446-.315-8.187.01-2.506-.282-5.003-.5-7.5z"/></g><path d="M-26.296 154.814c-1.046 1.31-1.728 2.887-2.14 4.514s-.562 3.308-.627 4.984c-.128 3.353.076 6.77-.81 10.006-.95 3.46-3.076 6.456-5.158 9.378-3.605 5.06-7.25 10.25-9.027 16.202-1.077 3.605-1.436 7.423-1.048 11.165-4.035 5.926-7.53 12.22-10.423 18.78-4.386 9.942-7.396 20.527-8.455 31.34-1.296 13.242.398 26.862 5.627 39.097 3.78 8.846 9.418 16.944 16.686 23.247 3.695 3.205 7.8 5.94 12.2 8.097 15.213 7.477 34.013 7.49 48.973-.48 7.818-4.166 14.418-10.258 20.78-16.422 3.832-3.712 7.644-7.512 10.567-11.976 5.627-8.592 7.587-19.036 8.805-29.234 2.13-17.833 2.198-36.67-5.62-52.838a58.29 58.29 0 0 0-10.581-15.141c-1.145-7.78-3.406-15.397-6.692-22.542-2.37-5.155-5.268-10.062-7.47-15.29-.904-2.147-1.7-4.345-2.693-6.447s-2.24-4.125-3.924-5.735c-1.723-1.65-3.87-2.818-6.136-3.566s-4.65-1.087-7.03-1.207c-4.765-.24-9.54.383-14.306.194-3.795-.15-7.578-.816-11.37-.592-1.896.112-3.79.45-5.55 1.165s-3.382 1.817-4.566 3.3z" fill="#fdfdfb"/><path d="M-28.632 172.6c1.703 4.938 5.13 9.152 9.186 12.444 1.35 1.095 2.782 2.104 4.366 2.817s3.332 1.12 5.062.972c1.695-.144 3.307-.81 4.79-1.646s2.856-1.847 4.293-2.757c2.463-1.56 5.1-2.82 7.657-4.22 3.082-1.687 6.07-3.6 8.665-5.96 1.188-1.085 2.296-2.268 3.608-3.2s2.883-1.606 4.488-1.497c1.204.082 2.333.594 3.512.848.6.127 1.2.19 1.797.098s1.18-.344 1.598-.78c.512-.533.736-1.3.7-2.04s-.284-1.453-.63-2.107c-.69-1.308-1.735-2.435-2.2-3.838-.414-1.25-.33-2.6-.294-3.914s.008-2.69-.6-3.857c-.462-.89-1.236-1.595-2.122-2.064s-1.88-.7-2.876-.804c-1.995-.187-3.994.2-5.994.313-2.656.15-5.322-.182-7.977-.022-3.31.2-6.557 1.16-9.874 1.166-3.786.007-7.568-1.232-11.308-.64-1.605.254-3.135.838-4.676 1.352s-3.133.967-4.757.944c-1.844-.027-3.63-.665-5.47-.797-.92-.066-1.862 0-2.726.323s-1.645.924-2.068 1.743c-.243.47-.363.997-.386 1.525s.05 1.057.178 1.57c.255 1.026.724 1.983 1.1 2.967 1.393 3.554 1.692 7.448 2.937 11.056z" fill-opacity=".26" filter="url(#z)"/><path transform="matrix(1 0 0 .92111 21 6.1075)" d="M-54.38 165.474c3.308 2.22 6.277 4.944 8.77 8.052 2.313 2.884 4.28 6.154 7.3 8.29 2.133 1.508 4.695 2.358 7.294 2.616 3.052.303 6.14-.187 9.082-1.052 2.727-.802 5.363-1.93 7.782-3.42 4.598-2.836 8.44-6.993 13.5-8.857 1.107-.407 2.26-.698 3.327-1.2s2.07-1.254 2.58-2.318c.5-1.022.47-2.202.63-3.325.17-1.2.554-2.362.764-3.556s.235-2.472-.28-3.57c-.428-.91-1.205-1.628-2.1-2.085s-1.9-.664-2.904-.714c-2.006-.1-3.988.415-5.988.598-2.65.242-5.318-.1-7.977-.02-3.308.1-6.568.85-9.874 1.005-3.772.178-7.534-.418-11.308-.55-1.632-.058-3.275-.03-4.884.253s-3.188.822-4.55 1.726c-1.32.877-2.397 2.067-3.607 3.09-.605.512-1.248.985-1.954 1.345s-1.48.605-2.27.643c-.407.02-.818-.015-1.22.047a2.59 2.59 0 0 0-2.121 3.005z" filter="url(#y)" opacity=".3"/><path d="M-24.768 113.362c-1.78.097-3.485.92-4.788 2.137s-2.22 2.812-2.786 4.504c-1.13 3.384-.875 7.052-.62 10.6.233 3.222.47 6.505 1.677 9.502.603 1.498 1.45 2.9 2.58 4.064s2.552 2.042 4.118 2.434c1.47.368 3.038.292 4.483-.162s2.764-1.28 3.846-2.338c1.58-1.545 2.643-3.566 3.253-5.69s.784-4.352.752-6.56c-.04-2.764-.4-5.54-1.266-8.164s-2.246-5.103-4.173-7.086c-.933-.96-1.998-1.805-3.2-2.397s-2.543-.925-3.88-.853z" fill="url(#AA)"/><path d="M6.75 113.362c-2.78 1.9-5.11 4.575-6.25 7.75-1.436 4.002-.886 8.48.5 12.5 1.42 4.117 3.794 8.04 7.38 10.512 1.793 1.236 3.868 2.083 6.03 2.34s4.41-.095 6.34-1.1c2.353-1.226 4.148-3.373 5.262-5.78s1.59-5.07 1.738-7.72c.2-3.375-.14-6.806-1.25-10-1.205-3.47-3.4-6.67-6.473-8.667-1.54-.998-3.292-1.684-5.11-1.935s-3.705-.063-5.416.602c-.975.38-1.887.907-2.75 1.5z" fill="url(#AB)"/><path d="M-25.36 142.154l-5.136 4.685c-.904.91-1.81 1.884-2.215 3.1-.36 1.08-.292 2.253-.47 3.38-.06.386-.15.77-.152 1.16a1.94 1.94 0 0 0 .078.578c.057.187.15.363.285.506.222.237.538.366.856.43s.645.072.968.107c1.456.157 2.798.863 4.004 1.695l3.55 2.585c2.73 1.734 5.993 2.505 9.226 2.628s6.458-.37 9.63-1.005c2.52-.504 5.034-1.1 7.425-2.044 3.663-1.444 6.964-3.667 10.118-6.022 1.433-1.07 2.846-2.173 4.133-3.415.437-.422.86-.86 1.328-1.246s.988-.722 1.566-.908c.88-.283 1.836-.202 2.748-.05.687.115 1.376.27 2.072.24.348-.014.697-.074 1.02-.204s.622-.33.843-.6a2.02 2.02 0 0 0 .442-1.272c.002-.458-.14-.91-.37-1.305-.465-.79-1.268-1.323-2.105-1.695-1.146-.51-2.386-.76-3.606-1.056-3.745-.904-7.385-2.24-10.836-3.954-1.716-.852-3.384-1.796-5.072-2.7-1.736-.93-3.505-1.824-5.39-2.395-4.213-1.277-8.82-.858-12.977.586-4.62 1.604-8.797 4.463-11.966 8.188z" filter="url(#x)" opacity=".3"/><path d="M-16.4 136.862c1.767-1.987 2.976-4.41 4.674-6.457.85-1.023 1.828-1.955 2.982-2.617s2.492-1.04 3.817-.926c1.474.128 2.855.862 3.934 1.875s1.88 2.3 2.52 3.625c.612 1.278 1.098 2.64 1.98 3.75.94 1.184 2.26 1.992 3.45 2.923.596.465 1.167.97 1.638 1.56s.84 1.276.99 2.017a4.21 4.21 0 0 1-.185 2.267c-.262.72-.707 1.372-1.26 1.904-1.106 1.065-2.614 1.64-4.134 1.855-3.04.43-6.115-.476-9.184-.39-3.107.085-6.142 1.184-9.248 1.07-1.553-.057-3.128-.436-4.404-1.323a5.57 5.57 0 0 1-1.596-1.676c-.402-.665-.647-1.43-.673-2.206-.025-.74.148-1.48.444-2.16s.713-1.302 1.182-1.876c.94-1.148 2.087-2.106 3.072-3.214z" fill="url(#AC)"/><path class="J" transform="matrix(1.1522 0 0 1.1522 -302.03 -22.837)" d="M277.96 90.857c-2.225 1.57-1.253 3.53-.296 5.498s-2.104 7.64-2.137 7.884 6.025-2.875 7.676-4.902c1.95-2.393 6.877 3.238 6.61 2.38.002-1.533-9.627-12.43-11.852-10.86z" filter="url(#w)"/><g transform="translate(-289 -9)"><path class="E" d="M302.162 130.757c-1.045.075-2.064.432-2.95 1s-1.643 1.315-2.237 2.18c-1.187 1.728-1.71 3.847-1.793 5.94-.063 1.572.11 3.165.632 4.65s1.4 2.86 2.613 3.863c1.24 1.027 2.816 1.644 4.425 1.72s3.24-.387 4.56-1.307c1.053-.733 1.902-1.742 2.507-2.873s.97-2.383 1.135-3.655c.294-2.247-.038-4.593-1.077-6.607s-2.8-3.673-4.927-4.456c-.92-.34-1.91-.516-2.888-.446z"/><path d="M304.656 137.612c-.866.342-2.237.127-2.616.977-.225.504.093 1.333.603 1.54 1.032.42 2.632-.34 3.05-1.375.18-.45-.093-1.16-.54-1.35-.165-.07-.33.14-.496.206z" fill="#141413" filter="url(#u)"/><path d="M308.625 139.862c1.16-1.16-.826-4.24-2.375-5.5-1.122-.913-4.39-1.87-4.25-.875s1.6 2.266 2.595 3.237c1.212 1.195 3.48 3.69 4.03 3.138z" fill="url(#AD)" filter="url(#v)"/></g><path transform="translate(-79 -9)" d="M75.25 132.487a23.71 23.71 0 0 1 8.122-4.4c6.086-1.88 13-1.137 18.378 2.275 1.857 1.178 3.512 2.642 5.24 4.004s3.56 2.64 5.636 3.37c1.12.394 2.318.623 3.5.5 1.068-.112 2.1-.512 2.984-1.12s1.625-1.418 2.18-2.337c1.112-1.837 1.47-4.065 1.278-6.203-.383-4.277-2.796-8.053-4.818-11.84-.633-1.186-1.236-2.393-2-3.5-2.343-3.396-6.073-5.636-9.985-6.948s-8.046-1.786-12.14-2.302c-1.826-.23-3.673-.47-5.5-.25-2.1.253-4.076 1.1-6.125 1.625-.973.25-1.964.425-2.928.704s-1.913.67-2.697 1.296c-1.145.916-1.865 2.29-2.177 3.723s-.24 2.924-.012 4.372c.458 2.896 1.54 5.724 1.438 8.654-.07 2.012-.702 3.988-.625 6 .023.6.107 1.177.25 1.75" clip-path="url(#t)" fill="url(#AE)"/><path d="M16.406 105.125c-.477.6-.908 1.252-1.25 1.97 2.146.462 4.2 1.346 6.03 2.563 3.545 2.354 6.237 5.796 8.125 9.625.44-.488.842-1.012 1.188-1.594-1.898-3.988-4.644-7.595-8.312-10.03-1.762-1.17-3.725-2.054-5.78-2.53z" fill="url(#AF)" filter="url(#s)"/><path d="M-24.97 107.08c-.242-.005-.477.017-.72.028l-.47.028c1.413.128 2.818.508 4.094 1.08 1.74.78 3.274 1.893 4.625 3.16 2.504 2.345 4.365 5.24 5.625 8.31a20.8 20.8 0 0 0-2.062-6.659c-.494-.57-1.006-1.13-1.562-1.65-1.35-1.266-2.886-2.378-4.625-3.16-1.52-.683-3.214-1.108-4.906-1.138z" fill="url(#AG)" filter="url(#r)"/><path class="E" d="M-29.06 128.112c-.372 2.246-.386 4.602.386 6.743.5 1.414 1.35 2.697 2.372 3.8.67.722 1.428 1.378 2.316 1.803s1.916.606 2.87.367c.88-.22 1.652-.79 2.22-1.497s.948-1.553 1.218-2.42c.797-2.56.67-5.362-.122-7.924-.577-1.867-1.532-3.668-3.027-4.927-.713-.6-1.548-1.07-2.455-1.287s-1.89-.165-2.738.22c-.942.428-1.672 1.243-2.15 2.16s-.723 1.94-.892 2.96z"/><path transform="translate(-189 -9)" d="M164.688 135.487c.242.634 1.054.864 1.5 1.375.433.497.887 1.01 1.125 1.625.455 1.176-.45 2.92.5 3.75.298.26.895.266 1.188 0 1.145-1.042.89-3.144.438-4.625-.41-1.344-1.427-2.616-2.68-3.255-.58-.295-1.45-.54-1.946-.12-.32.27-.274.86-.125 1.25z" fill="url(#AH)" filter="url(#p)"/><g transform="translate(-79 -9)"><path d="M45.752 165.032c.06.295.173.58.327.84.266.445.654.806 1.073 1.11s.873.56 1.312.835c2.334 1.467 4.235 3.53 5.925 5.707 2.267 2.922 4.272 6.165 7.3 8.29 2.138 1.5 4.696 2.355 7.294 2.616 3.05.307 6.14-.186 9.082-1.052 2.726-.803 5.363-1.93 7.782-3.42 4.6-2.836 8.44-6.993 13.5-8.857 1.107-.407 2.26-.698 3.326-1.2s2.07-1.254 2.58-2.318c.5-1.022.47-2.202.63-3.325.17-1.2.554-2.362.764-3.556s.235-2.472-.28-3.57c-.428-.91-1.205-1.628-2.1-2.085s-1.9-.664-2.904-.714c-2.006-.1-3.988.415-5.988.598-2.65.242-5.318-.098-7.977-.02-3.308.1-6.568.845-9.874 1.005-3.772.183-7.535-.4-11.308-.55-1.634-.066-3.28-.05-4.892.225s-3.195.824-4.54 1.753c-1.31.906-2.356 2.14-3.56 3.184-.602.522-1.25 1-1.966 1.347s-1.507.564-2.304.547c-.4-.01-.83-.077-1.22.047-.244.077-.46.227-.644.406s-.335.387-.478.6a10.52 10.52 0 0 0-.867 1.558z" fill="url(#AI)"/><path d="M60.557 169.097a6.7 6.7 0 0 0 4.346 7.847c1.978.66 4.207.336 6.055-.628 1.07-.56 2.05-1.346 2.67-2.384a4.51 4.51 0 0 0 .605-1.696c.08-.6.025-1.22-.185-1.785-.23-.62-.64-1.168-1.146-1.596s-1.105-.738-1.733-.946c-1.258-.416-2.61-.424-3.934-.36a38.86 38.86 0 0 0-5.969.753" fill="#d9b30d" filter="url(#i)"/><path d="M54.066 156.68l-3.898 2.563c-.657.466-1.334.97-1.68 1.696-.246.515-.302 1.1-.3 1.67s.03 1.144-.046 1.7c-.05.386-.154.766-.172 1.155-.01.195.005.39.056.58a1.2 1.2 0 0 0 .275.509c.173.183.408.296.65.37s.49.11.736.17c1.175.276 2.197.997 3.094 1.804l2.64 2.476c2.537 2.064 5.9 2.92 9.16 2.973s6.504-.63 9.695-1.35l7.425-2.044c3.703-1.365 7.14-3.432 10.118-6.022 1.35-1.174 2.617-2.464 4.133-3.415 1.34-.842 2.843-1.398 4.206-2.203.122-.072.243-.146.352-.237s.206-.198.27-.325c.11-.22.11-.48.04-.716s-.206-.444-.36-.634c-.17-.21-.363-.402-.57-.578-1.424-1.22-3.357-1.662-5.226-1.81s-3.76-.043-5.6-.352c-1.74-.3-3.393-.94-5.072-1.477a37.34 37.34 0 0 0-5.389-1.31c-4.295-.7-8.717-.566-12.977.32-4.058.845-7.97 2.37-11.54 4.48z" fill="#604405" filter="url(#j)"/><path d="M53.64 152.154c-1.93 1.3-3.666 2.883-5.136 4.685-.84 1.03-1.604 2.15-2.027 3.412-.333.992-.446 2.042-.656 3.067-.08.384-.17.77-.17 1.16.001.196.026.393.086.58s.158.362.294.503c.225.234.54.36.858.426s.644.075.966.112c1.455.165 2.794.872 4 1.702l3.554 2.578c2.734 1.73 5.995 2.498 9.227 2.623s6.457-.366 9.63-1c2.52-.503 5.034-1.1 7.425-2.044 3.662-1.444 6.964-3.667 10.118-6.022 1.433-1.07 2.846-2.173 4.133-3.415.437-.422.86-.86 1.328-1.246s.988-.722 1.566-.908c.88-.283 1.836-.202 2.748-.05.687.115 1.376.27 2.072.24.348-.014.697-.074 1.02-.204s.622-.33.843-.6a2.02 2.02 0 0 0 .442-1.272c.002-.458-.14-.91-.37-1.305-.465-.79-1.268-1.323-2.105-1.695-1.146-.51-2.386-.76-3.606-1.056-3.745-.904-7.385-2.24-10.836-3.954-1.716-.852-3.384-1.796-5.072-2.7-1.736-.93-3.505-1.824-5.39-2.395-4.213-1.277-8.82-.858-12.977.586-4.62 1.604-8.797 4.463-11.966 8.188z" fill="url(#AJ)"/><path d="M83.24 153.08c-.226-.286-.55-.488-.9-.59s-.725-.1-1.084-.05c-.72.123-1.364.5-1.966.925-1.71 1.176-3.22 2.628-4.537 4.23-1.745 2.12-3.185 4.572-3.668 7.275-.08.455-.135.92-.078 1.38s.233.915.56 1.243c.286.288.676.464 1.078.522s.816.002 1.2-.128c.77-.26 1.41-.8 2.014-1.34 3.336-2.985 6.353-6.568 7.56-10.88.12-.433.224-.876.22-1.325s-.12-.91-.398-1.262z" fill="#f6da4a" filter="url(#k)"/><path d="M75.25 146.9c.23.742 1.428.62 2.12.975.607.312 1.094.997 1.777 1.017.65.02 1.664-.225 1.75-.87.112-.853-1.134-1.395-1.935-1.708-1.03-.402-2.353-.606-3.32-.068-.222.123-.464.412-.388.655z" fill="url(#AK)" filter="url(#m)" opacity=".8"/><path d="M63.827 146.47c-.888-.29-2.357 1.277-1.878 2.08.132.22.535.5.806.35.41-.225.744-1.03 1.187-1.345.296-.21.23-.972-.116-1.084z" fill="url(#AL)" filter="url(#n)" opacity=".8"/><ellipse transform="matrix(1.0956 0 -.17018 1.5181 -136.24 -82.117)" cx="243.3" cy="158.28" rx="2.608" ry="2.328" fill="url(#AM)" filter="url(#o)"/><path d="M50.392 129.527c2.685-1.6 5.955-1.97 9.067-1.676s6.125 1.208 9.14 2.03c2.212.602 4.452 1.16 6.525 2.138s4 2.416 5.142 4.403l.54.962c.194.312.423.61.716.83s.657.364 1.024.344c.184-.01.366-.06.524-.154s.293-.23.378-.392c.098-.187.128-.404.117-.616a2.94 2.94 0 0 0-.117-.622c-.755-2.753-2.535-5.088-3.89-7.6l-2.298-4.596c-2.818-5.16-7.444-9.216-12.7-11.847s-11.127-3.896-16.997-4.24c-6.8-.398-13.62.41-20.33 1.59-2.91.512-5.86 1.115-8.436 2.562-1.287.723-2.467 1.657-3.388 2.81s-1.576 2.535-1.788 3.997c-.204 1.41.01 2.86.5 4.196s1.258 2.558 2.157 3.662c1.797 2.208 4.1 3.934 6.222 5.83s4.1 3.992 6.463 5.563c1.186.785 2.473 1.435 3.843 1.817s2.83.49 4.224.204c1.445-.296 2.783-1.005 3.954-1.902s2.186-1.98 3.148-3.098c1.925-2.236 3.723-4.686 6.257-6.196z" clip-path="url(#h)" fill="url(#AN)"/></g><path class="E" d="M66.102 216.45c6.085 4.895 9.946 12.286 11.14 20.003.932 6.02.326 12.195-1.03 18.132s-3.452 11.676-5.532 17.4c-.83 2.283-1.662 4.587-1.992 6.993s-.12 4.954 1.04 7.088c1.33 2.446 3.813 4.13 6.482 4.923 2.635.783 5.48.766 8.148.102s5.157-1.963 7.328-3.65c5.516-4.283 8.844-10.95 10.132-17.812s.696-13.95-.5-20.83c-1.633-9.38-4.382-18.55-7.88-27.408-2.573-6.515-5.584-12.92-9.79-18.52-4.117-5.48-9.307-10.093-13.34-15.635-2.803-3.85-5.048-8.15-8.406-11.526-1.68-1.688-3.64-3.132-5.86-3.995s-4.713-1.116-7.005-.47c-3.02.85-5.5 3.23-6.803 6.082s-1.543 6.123-1.032 9.22c.66 3.995 2.486 7.703 4.546 11.19 2.327 3.937 5.022 7.727 8.536 10.654 3.667 3.055 8.102 5.07 11.82 8.06z"/><path transform="matrix(1.0181 0 0 1 -244.26 -9)" d="M290.78 216.018l1.5 1.375c3.667 3.055 5.62 6.485 9.338 9.477 6.085 4.895 12.26 13.344 13.454 21.06.932 6.02-.3 9.29-1.805 16.388s-5.77 17.148-8.074 23.992c-.92 2.73 1.86 1.603 1.496 4.48a17.72 17.72 0 0 0-.035 4.259l.07-.822c.443-3.923 1.623-7.695 2.91-11.395 2.474-7.122 5.314-14.1 7.272-21.408s1.74-12.564.72-18.844c-1.285-7.896-5.797-15.187-12.187-20-4.52-3.403-9.847-5.585-14.656-8.562z" clip-path="url(#f)" fill="#838384" filter="url(#g)"/><path transform="matrix(1.1543 0 0 1 27.332 -9)" d="M-61.003 211.593c.88 1.524-.547 6.778 19.964 3.415 0 0-3.602.457-7.153 1.404-5.52 2.133-10.33 4.517-14.04 7.675-3.676 3.122-6.367 7.197-9.74 10.697 0 0 5.462-11.52 6.823-14.987s-.228-3.3.85-8.414 3.713-10.007 3.713-10.007-2.152 7.21-.417 10.216z" fill="url(#AO)" filter="url(#e)" opacity=".25"/><path d="M33.05 201.218c-4.825 3.36-7.652 2.963-13.507 3.62s-21.698.42-21.698.42 2.294-.043 7.378.904 15.453 1.852 21.292 4.075 7.968 2.857 11.517 5.1c5.05 3.194 8.758 8.197 13.587 11.697 0 0 .234-4.644-1.716-8.112s-7.2-8.935-8.732-14.04-2.274-15.132-2.274-15.132-1.02 8.105-5.846 11.466z" fill="url(#AP)" filter="url(#d)" opacity=".42"/><path d="M-12.33 194.04l-.697 4.344c-.14.71-.295 1.42-.56 2.093s-.644 1.312-1.18 1.796c-.47.424-1.044.716-1.62.98-2.248 1.03-4.654 1.713-7.108 2.02l2.935.268c.615.067 1.232.142 1.832.296s1.185.4 1.684.755c.548.4.978.948 1.3 1.546.64 1.192.854 2.563.973 3.9.15 1.723.162 3.46.033 5.184.116-1.154.358-2.296.72-3.398.653-1.986 1.704-3.848 3.12-5.386.562-.61 1.18-1.17 1.86-1.648a10.29 10.29 0 0 1 7.236-1.761 11.24 11.24 0 0 1-7.194-2.233c-1.042-.785-1.95-1.763-2.58-2.905a8.11 8.11 0 0 1-.751-5.861z" fill="url(#AQ)" filter="url(#c)" opacity=".2"/><path d="M-18.5 228.08a88.71 88.71 0 0 0-2.526 14.277c-.637 6.812-.484 13.672-.85 20.505-.3 5.798-.99 11.656.016 17.374.48 2.727 1.343 5.385 2.555 7.875a26.9 26.9 0 0 0 .422-2.876c.427-4.636-.354-9.287-.618-13.935-.462-8.147.666-16.3 1.125-24.438a149.28 149.28 0 0 0-.125-18.781z" filter="url(#a)" opacity=".1"/><path d="M37.688 157.862c-2.162 1.97 1.014 4.928 2.52 8.404.936 2.16 3.527 5.205 6.032 4.718 1.885-.367 3.054-3.08 2.876-4.99-.344-3.69-3.457-4.553-5.717-5.82-1.79-1.004-4.193-3.694-5.71-2.31z" fill="#838384" filter="url(#Z)"/><g transform="translate(21 -9)"><path transform="matrix(1.0269 0 0 1 -2.3134 0)" d="M86.056 328.132a16.61 16.61 0 0 1-2.05 4.411c-1.98 3.012-4.854 5.28-7.727 7.37-4.9 3.566-10.003 6.838-14.563 10.9-3.056 2.715-5.84 5.76-8.423 8.965-2.208 2.74-4.284 5.62-6.8 8.057-2.54 2.46-5.53 4.447-8.752 5.53-3.918 1.317-8.058 1.253-11.832.26-2.645-.696-5.224-1.907-6.862-4.097-1.645-2.198-2.178-5.152-2.368-8.052-.337-5.13.26-10.37.803-15.575.452-4.326.868-8.655 1.04-12.972.3-7.852-.197-15.636-1.232-23.273-.173-1.28-.362-2.568-.257-3.886s.535-2.688 1.436-3.705c.832-.94 1.993-1.496 3.15-1.77s2.33-.3 3.493-.32c2.74-.075 5.496-.24 8.195.006 1.703.156 3.373.475 5.073.643 2.838.28 5.78.133 8.627-.724 3.064-.922 5.986-2.652 9.1-3.127 1.277-.195 2.56-.173 3.8.006 1.267.182 2.528.542 3.502 1.336.74.604 1.282 1.433 1.706 2.317.63 1.317 1.02 2.77 1.24 4.26.197 1.32.266 2.68.598 3.957.545 2.1 1.78 3.886 3.267 5.34s3.225 2.602 4.96 3.734c1.73 1.127 3.468 2.247 5.315 3.176.867.436 1.758.83 2.586 1.333s1.6 1.12 2.15 1.935c.746 1.105 1.046 2.553.822 3.975" fill="url(#AR)" filter="url(#S)" opacity=".2"/><g transform="translate(-410)"><path d="M516.006 331.876c-.67 1.72-1.627 3.327-2.816 4.738-2.624 3.115-6.268 5.17-9.896 7.02-6.19 3.154-12.602 5.922-18.42 9.717-3.898 2.542-7.496 5.527-10.86 8.742-2.877 2.75-5.606 5.687-8.832 8.018-3.256 2.35-7.02 4.054-10.99 4.65-4.83.725-9.82-.213-14.3-2.164-3.138-1.367-6.156-3.323-7.963-6.23-1.814-2.918-2.228-6.488-2.233-9.924-.008-6.077 1.118-12.1 2.178-18.073.88-4.972 1.72-9.955 2.26-14.975.983-9.13.976-18.353.32-27.513-.1-1.534-.238-3.083-.008-4.604s.855-3.037 2.02-4.04c1.077-.927 2.52-1.336 3.94-1.414s2.834.147 4.24.352c3.313.484 6.652.865 9.89 1.717 2.043.537 4.033 1.26 6.072 1.81 3.403.92 6.966 1.36 10.467.952 3.77-.44 7.43-1.857 11.224-1.765 1.557.038 3.1.332 4.586.8 1.515.478 3.01 1.162 4.123 2.295.846.86 1.436 1.945 1.88 3.07.66 1.674 1.015 3.457 1.167 5.25.135 1.588.113 3.194.414 4.76.495 2.575 1.847 4.923 3.528 6.935s3.7 3.72 5.696 5.408c2 1.68 4.01 3.355 6.167 4.828 1.012.692 2.056 1.34 3.017 2.1s1.845 1.647 2.445 2.715c.815 1.45 1.064 3.208.683 4.826z" clip-path="url(#T)" fill="url(#AS)"/><path d="M512.89 328.724a15.31 15.31 0 0 1-2.571 4.26c-2.402 2.814-5.73 4.654-9.038 6.31-5.653 2.83-11.503 5.318-16.82 8.735-3.554 2.284-6.84 4.966-9.918 7.86-2.63 2.473-5.125 5.116-8.066 7.208-2.98 2.12-6.418 3.647-10.037 4.18-4.41.65-8.96-.193-13.058-1.946-2.857-1.222-5.617-2.97-7.272-5.6-1.646-2.617-2.03-5.83-2.04-8.922-.013-5.465 1.018-10.87 1.99-16.248.807-4.47 1.575-8.948 2.064-13.463.89-8.208.848-16.498.292-24.735-.093-1.38-.2-2.774.012-4.14s.778-2.727 1.826-3.63c.983-.847 2.303-1.218 3.6-1.286s2.587.142 3.87.33c3.023.445 6.072.78 9.03 1.543 1.865.482 3.684 1.132 5.545 1.628 3.11.83 6.362 1.225 9.56.856 3.44-.397 6.787-1.67 10.25-1.587 1.42.035 2.83.3 4.19.72 1.382.426 2.75 1.034 3.765 2.063.766.775 1.295 1.754 1.716 2.76.626 1.497 1.033 3.097 1.066 4.72.035 1.694-.336 3.395-.106 5.073.186 1.363.763 2.648 1.5 3.81s1.634 2.21 2.523 3.26c1.717 2.03 3.44 4.097 5.593 5.655 2.452 1.774 5.362 2.81 7.895 4.467.755.494 1.486 1.052 2.018 1.78a4.76 4.76 0 0 1 .624 4.339z" clip-path="url(#U)" fill="#cd8907" filter="url(#V)"/></g><path transform="matrix(1.143 0 0 1.2323 -479 -77.126)" d="M508.793 327.925c-.602 1.265-1.382 2.444-2.31 3.49-2.153 2.428-5.06 4.1-8.123 5.172-5.042 1.767-10.546 2.004-15.495 4.016-3.016 1.226-5.73 3.073-8.48 4.82-2.222 1.41-4.492 2.77-6.932 3.756-2.755 1.115-5.686 1.74-8.626 2.18-1.87.28-3.763.484-5.652.387s-3.784-.507-5.45-1.4c-1.264-.678-2.4-1.653-3.076-2.918-.75-1.406-.88-3.056-.862-4.65.046-4.246 1.026-8.446.996-12.692-.026-3.696-.815-7.345-1.042-11.034-.437-7.095 1.205-14.313-.24-21.273-.23-1.114-.542-2.227-.527-3.365.008-.57.1-1.14.315-1.667s.563-1.005 1.025-1.338c.39-.28.85-.45 1.323-.527s.957-.062 1.432.007c.948.137 1.852.482 2.775.737 2.642.73 5.433.714 8.117 1.265 1.685.346 3.317.91 4.984 1.334 2.8.7 5.72 1.013 8.592.7 3.09-.335 6.107-1.375 9.213-1.3 1.273.03 2.537.25 3.765.59s2.455.82 3.384 1.69c.67.628 1.15 1.43 1.542 2.26.57 1.212.967 2.53.958 3.868-.005.697-.12 1.388-.187 2.08s-.088 1.404.09 2.077.554 1.287.983 1.84.915 1.06 1.358 1.602c1.242 1.517 2.13 3.285 3.097 4.99s2.052 3.393 3.58 4.62c2.08 1.672 4.778 2.34 7.096 3.66.68.387 1.337.84 1.814 1.46a3.77 3.77 0 0 1 .561 3.556z" clip-path="url(#W)" fill="#f5c021" filter="url(#X)"/><path d="M27.31 290.65c3.276-.887 6.066 1.597 8.442 3.472 1.535 1.31 3.753.98 5.637 1.042 3.12-.113 6.225.523 9.347.136 6.145-.52 12.168-2.03 18.342-2.3 2.95-.186 6.26-.357 8.808 1.365 1.033.716 2.547 3.74 3.566 2.605-.42-3.178-2.777-6.256-5.94-7.102-2.475-.39-5 .29-7.49.07-7.423-.177-14.793-1.555-22.234-1.16-5.176.045-10.347-.195-15.515-.397-2.03-.415-2.747 1.39-3.85 2.08" fill="url(#AT)" filter="url(#Y)"/></g><g class="J"><path transform="matrix(-.095961 -.95701 -.77476 .11853 259.9 542.61)" d="M361.75 209.343c.002-1.533-7.565-10.056-9.8-8.486s-.492 3.784-.296 5.498-.945 6.61.238 7.26 3.366-2.52 5.3-4.277c1.558-1.415 4.544 1.54 4.546.006z" filter="url(#R)" opacity=".75"/><path transform="matrix(-.069919 .95701 -.56451 -.11853 97.568 -131.02)" d="M351.96 200.857c-1.452.39-1.23 3.994-.296 5.498.79 1.27 3.072 2.27 3.76 1.005 1.114-2.056-1.472-7.036-3.462-6.503z" filter="url(#Q)" opacity=".25"/></g><g transform="translate(21 -9)"><use fill="url(#AU)" filter="url(#O)" opacity=".35" xlink:href="#Aa"/><use transform="matrix(1 0 0 .72292 0 80.758)" fill="url(#AU)" filter="url(#P)" opacity=".35" xlink:href="#Aa"/><path class="E" d="M76.188 285.328c-.405-1.104-1.118-2.082-1.99-2.87s-1.9-1.392-2.983-1.852c-2.165-.92-4.52-1.26-6.832-1.696l-6.528-1.277c-2.27-.386-4.618-.632-6.865-.125-1.966.443-3.784 1.46-5.272 2.82s-2.65 3.056-3.485 4.9c-1.472 3.23-1.935 6.865-1.654 10.403.21 2.633.875 5.346 2.61 7.34 1.4 1.61 3.387 2.615 5.434 3.22 3.525 1.043 7.367.988 10.86-.155a28.59 28.59 0 0 0 14.33-10.779c1.14-1.65 2.112-3.448 2.553-5.403.336-1.5.348-3.08-.178-4.515z"/><g transform="translate(-310)"><use clip-path="url(#L)" fill="url(#AW)" filter="url(#M)" xlink:href="#Ab"/><use clip-path="url(#N)" fill="url(#AX)" filter="url(#M)" xlink:href="#Ab"/></g></g><path class="E" d="M-40.502 175.425l-16.922 21.186c-3.533 4.38-7.15 8.794-9.45 13.93-1.976 4.413-2.91 9.207-4.265 13.85-1.538 5.272-3.626 10.37-5.97 15.336-2.165 4.585-4.55 9.063-6.94 13.536-1.738 3.254-3.505 6.58-4.108 10.22-.476 2.876-.2 5.844.534 8.666s1.9 5.51 3.238 8.106c5.667 11.075 14.17 20.622 24.242 27.925 4.57 3.314 9.467 6.18 14.602 8.526 2.782 1.27 5.714 2.404 8.772 2.457 1.53.026 3.074-.225 4.474-.84s2.65-1.604 3.483-2.887c1.023-1.578 1.37-3.538 1.165-5.407s-.935-3.653-1.913-5.26c-2.4-3.923-6.165-6.76-9.796-9.573-7.84-6.074-15.425-12.48-22.682-19.24-2.05-1.91-4.098-3.878-5.53-6.284-1.394-2.344-2.148-5.014-2.658-7.693-1.4-7.35-1.04-15.083 1.46-22.133.978-2.758 2.27-5.392 3.518-8.04 2.16-4.59 4.207-9.266 7.05-13.467 3.538-5.23 8.267-9.66 11.15-15.278 2.434-4.74 3.42-10.072 4.362-15.318l2.184-12.318z"/><path class="J" transform="translate(-289 -9)" d="M232.33 224.27a33 33 0 0 0-5.953 7.318c-2.668 4.46-4.24 9.468-6.178 14.29-1.444 3.59-3.125 7.193-3.327 11.056-.103 1.984.19 3.966.257 5.952s-.118 4.05-1.1 5.784c-.813 1.45-2.166 2.59-3.733 3.144a11.07 11.07 0 0 1 5.335 3.865c1.115 1.5 1.828 3.254 2.796 4.85.787 1.298 1.753 2.5 2.943 3.445s2.61 1.62 4.117 1.813a7.26 7.26 0 0 0 5.765-1.842c-1.925-18.036-.162-36.457 5.15-53.8.335-1.095.687-2.198.77-3.34s-.13-2.348-.824-3.258c-.37-.485-.868-.87-1.43-1.108s-1.186-.325-1.79-.252-1.19.306-1.68.67-.882.857-1.127 1.415z" clip-path="url(#J)" filter="url(#K)" opacity=".95"/><g transform="translate(-219 -9)" clip-path="url(#F)"><path d="M137.577 281.02c1.6-.663 3.398-.784 5.1-.47s3.31 1.05 4.743 2.022c2.864 1.946 4.988 4.778 7.023 7.58 4.672 6.434 9.17 13.002 13.245 19.83 3.306 5.538 6.344 11.257 10.164 16.453 2.494 3.392 5.307 6.54 7.813 9.922s4.728 7.056 5.84 11.117c1.444 5.277.885 11.093-1.627 15.953-1.767 3.42-4.476 6.352-7.772 8.34s-7.17 3.014-11.016 2.87c-6.114-.23-11.7-3.285-17.384-5.55-11.58-4.612-24.16-6.06-36.097-9.652-3.67-1.104-7.276-2.41-10.97-3.426-1.64-.45-3.31-.848-4.86-1.55s-3-1.75-3.862-3.217c-.666-1.134-.948-2.47-.93-3.786s.326-2.615.774-3.852c.896-2.474 2.343-4.714 3.32-7.157 1.595-3.99 1.882-8.388 1.667-12.68s-.91-8.545-1.205-12.83c-.13-1.914-.18-3.853.185-5.736s1.176-3.725 2.558-5.055c1.274-1.227 2.965-1.955 4.696-2.317s3.515-.377 5.284-.338 3.54.134 5.304-.01 3.533-.54 5.07-1.418c1.46-.834 2.654-2.075 3.644-3.434s1.79-2.846 2.61-4.314 1.668-2.932 2.742-4.226 2.39-2.423 3.943-3.067z" fill="url(#AY)"/><path d="M140.1 283.78c1.455-.586 3.094-.65 4.623-.304s2.95 1.1 4.188 2.047c2.478 1.914 4.2 4.614 5.854 7.27 3.97 6.433 7.85 12.934 11.516 19.567 2.777 4.993 5.425 10.093 8.837 14.68 2.264 3.042 4.847 5.83 7.158 8.837s4.37 6.282 5.393 9.933c1.316 4.706.783 9.9-1.495 14.233a18.98 18.98 0 0 1-7.186 7.513 18.5 18.5 0 0 1-10.087 2.488c-5.598-.258-10.71-3.054-15.98-4.95-10.103-3.666-21.053-4.158-31.416-7.02-3.715-1.008-7.337-2.353-11.07-3.294-1.652-.417-3.333-.757-4.902-1.42s-3.047-1.69-3.898-3.165c-.633-1.097-.886-2.388-.847-3.654s.36-2.5.8-3.694c.902-2.367 2.32-4.5 3.23-6.875 1.38-3.574 1.55-7.504 1.294-11.326s-.92-7.61-1.153-11.434c-.104-1.71-.12-3.44.226-5.116s1.076-3.3 2.295-4.512c1.32-1.31 3.14-2.024 4.977-2.304s3.706-.158 5.555.007 3.705.373 5.56.262 3.736-.563 5.27-1.607c1.397-.945 2.446-2.324 3.244-3.798s1.368-3.055 1.976-4.617 1.267-3.122 2.222-4.5 2.236-2.605 3.806-3.235" fill="#d99a03" filter="url(#G)"/><path transform="matrix(1 0 0 .98205 0 3.959)" d="M138.753 281.235c1.41-.712 3.07-.858 4.616-.537s2.978 1.09 4.196 2.096c2.435 2 3.98 4.875 5.42 7.685 3.305 6.455 6.383 13.05 10.338 19.128 2.87 4.4 6.18 8.517 9.082 12.905 3.936 5.95 7.136 12.496 8.456 19.507.888 4.716.86 9.8-1.372 14.058-1.47 2.796-3.85 5.1-6.663 6.525s-6.043 2.017-9.19 1.734c-4.954-.445-9.454-2.925-14.117-4.655-8.275-3.07-17.218-3.803-25.734-6.12-3.592-.977-7.1-2.235-10.75-3-1.606-.342-3.244-.59-4.777-1.18s-2.986-1.566-3.77-3.01c-.55-1.016-.737-2.205-.654-3.357s.42-2.275.865-3.342c.888-2.134 2.2-4.09 2.9-6.296 1.013-3.242.597-6.757-.164-10.068s-1.857-6.56-2.194-9.94c-.15-1.505-.147-3.04.19-4.515s1.027-2.892 2.11-3.95c1.393-1.362 3.344-2.04 5.283-2.23s3.892.07 5.82.35 3.868.6 5.815.5 3.928-.61 5.453-1.824c1.508-1.2 2.456-2.987 3-4.836s.72-3.782.943-5.696.5-3.846 1.23-5.63 1.96-3.428 3.68-4.297z" fill="#f5bd0c" filter="url(#H)"/><path d="m156.41 295.97c2.606 4.713 4.196 10.122 6.78 14.875 2.378 4.372 5.084 8.874 7.5 12.906 1.075 1.795 3.583 4.555 6.12 8.837 2.298 3.88 4.618 9.297 5.917 11.116-0.746-2.13-2.28-7.847-4.11-11.923-1.7-3.81-3.7-5.982-4.927-8.03-2.416-4.032-5.017-7.656-7.5-11.5-3.425-5.302-6.036-11.235-9.78-16.28z" fill="url(#AZ)" filter="url(#I)"/></g></g></svg>
