<?xml version="1.0" encoding="UTF-8"?>
<svg width="400" height="250.4" version="1.1" viewBox="0 0 400 250.4" xml:space="preserve" xmlns="http://www.w3.org/2000/svg"><title>openSUSE logo</title><defs><clipPath id="vlpa"><path d="m0 200.3h320v-200.3h-320v200.3z"/></clipPath></defs><g transform="matrix(1.25 0 0 -1.25 0 250.4)"><g clip-path="url(#vlpa)"><g transform="translate(262.7 162.7)"><path d="m0 0c0.175 4.73 2.156 9.12 5.614 12.34 3.46 3.231 7.975 4.9 12.71 4.75 9.761-0.349 17.43-8.589 17.1-18.34-0.184-4.73-2.164-9.12-5.614-12.33-3.46-3.25-7.964-4.92-12.72-4.76-9.749 0.359-17.41 8.58-17.08 18.34zm47.35-17.44c0.805 0.532 1.396 0.972 1.645 1.07l0.269 0.419c-0.681 4.28-7.06 25.03-11.88 30.02-1.329 1.36-2.394 2.7-4.549 3.961-17.46 10.17-58.86 16.31-60.8 16.59l-0.33-0.091-0.124-0.3s-0.16-8.58-0.184-9.539c-4.229 1.421-34.97 11.35-63.79 12.35-24.44 0.859-60.03 4.02-107.2-24.98l-1.395-0.868c-22.19-13.84-37.51-30.91-45.52-50.74-2.512-6.24-5.89-20.32-2.542-33.57 1.442-5.791 4.131-11.61 7.756-16.82 8.194-11.77 21.94-19.58 36.75-20.9 20.9-1.87 36.73 7.519 42.36 25.1 3.871 12.13 0 29.93-14.84 39.01-12.07 7.391-25.05 5.711-32.58 0.73-6.532-4.331-10.23-11.06-10.17-18.45 0.151-13.11 11.44-20.08 19.56-20.1 2.359 0 4.728 0.41 7.399 1.28 0.951 0.29 1.845 0.649 2.831 1.259l0.309 0.181 0.194 0.13-0.065-0.039c1.851 1.261 2.964 3.312 2.964 5.511 0 0.6-0.084 1.208-0.256 1.82-0.959 3.32-4.239 5.329-7.638 4.71l-0.459-0.109-0.621-0.19-0.901-0.31c-1.87-0.46-3.27-0.5-3.569-0.51-0.951 0.061-5.625 1.461-5.625 6.58v0.07c0 1.88 0.754 3.199 1.17 3.92 1.454 2.28 5.435 4.518 10.81 4.05 7.059-0.611 12.15-4.231 15.52-11.06 3.129-6.349 2.31-14.16-2.11-19.88-4.39-5.669-12.2-8.078-22.6-6.959-10.48 1.159-19.34 7.19-24.3 16.58-4.856 9.178-5.121 20.06-0.685 28.42 10.61 20.03 30.65 19.82 41.64 17.92 16.26-2.821 34.76-17.82 41.32-35.14 1.06-2.761 1.6-4.949 2.072-6.951l0.708-2.99 18.37-8.969 0.24-0.181 0.446 0.041 0.081 0.529c-0.114 0.411-0.381 0.789-0.805 5.93-0.349 4.562-1.06 17.05 5.228 23.24 2.441 2.419 6.161 4.578 9.099 5.269 12.04 2.941 26.16 0.912 39.51-14.54 6.911-7.981 10.28-11.62 11.97-13.25l0.59-0.532 0.694-0.519c0.554-0.301 22.96-10.62 22.96-10.62l0.461 0.11 9e-3 0.479c-0.149 0.17-14.2 18.33-11.7 33.28 1.969 11.91 11.45 10.83 24.56 9.35 4.28-0.5 9.152-1.06 14.2-1.172 14.08-0.089 29.25 2.511 38.6 6.601 6.049 2.63 9.909 4.38 12.33 6.579 0.87 0.721 1.32 1.891 1.791 3.15l0.329 0.831c0.391 1.021 0.967 3.171 1.219 4.35 0.102 0.519 0.162 1.068-0.209 1.359l-1.294-0.24c-4.106-2.471-14.37-7.15-23.96-7.35-11.91-0.241-35.9 11.98-38.4 13.28l-0.241 0.279c-0.589 1.44-4.19 9.949-4.96 11.75 17.27-11.38 31.59-17.67 42.56-18.64 12.21-1.087 21.72 5.574 25.79 8.422h-1e-3zm-27.15 15.8c-3.031 0-5.479 1.64-5.479 3.65 0 2.029 2.448 3.66 5.479 3.66s5.486-1.631 5.486-3.66c-2e-3 -2.01-2.457-3.65-5.486-3.65m-2.021 13.51c-3.311 0.119-6.45-1.051-8.85-3.301-2.399-2.25-3.814-5.298-3.914-8.599-0.23-6.821 5.111-12.56 11.92-12.81 3.309-0.1 6.464 1.07 8.878 3.32 2.409 2.261 3.795 5.311 3.9 8.599 0.23 6.819-5.109 12.55-11.93 12.79z" style="fill:#73ba25"/></g><g transform="translate(134 60.29)"><path d="m0 0c-7.784 0-12.06-6.58-12.06-11.13v-5.84c0-6.7 5.474-10.85 10.55-10.85h17.82c2.245 0 2.715-1.47 2.715-2.71v-3.769c0-0.4-0.081-4.02-2.715-4.02h-24.3c-2.415 0-4.161-1.68-4.161-3.98v-1.041c0-2.291 1.746-3.961 4.161-3.961h25.62c6.698 0 11.02 4.66 11.02 11.88v6.302c0 6.779-4.87 9.809-9.706 9.809h-17.53c-2.64 0-3.836 1.98-3.836 3.38v3.48c0 2.19 1.465 3.46 4.025 3.46h19.41c2.38 0 4.171 1.71 4.171 3.971v1.04c0 2.269-1.821 3.981-4.251 3.981h-20.92z" style="fill:#73ba25"/></g><g transform="translate(206.8 60.29)"><path d="m0 0c-2.301 0-4.155-1.87-4.155-4.171v-29.84c0-2.391-1.95-4.311-4.311-4.311h-13.54c-2.369 0-4.309 1.92-4.309 4.311v29.84c0 2.301-1.87 4.171-4.169 4.171h-1.31c-2.335 0-4.171-1.842-4.171-4.171v-30.97c0-7.21 5.674-12.44 13.49-12.44h14.48c7.805 0 13.48 5.229 13.48 12.44v30.97c0 2.329-1.829 4.171-4.16 4.171h-1.319z" style="fill:#73ba25"/></g><g transform="translate(232.8 60.29)"><path d="m0 0c-7.78 0-12.07-6.58-12.07-11.13v-5.84c0-6.7 5.485-10.85 10.56-10.85h17.81c2.248 0 2.72-1.47 2.72-2.71v-3.769c0-0.4-0.081-4.02-2.72-4.02h-24.31c-2.404 0-4.16-1.68-4.16-3.98v-1.041c0-2.291 1.756-3.961 4.16-3.961h25.63c6.7 0 11.04 4.66 11.04 11.88v6.302c0 6.779-4.884 9.809-9.72 9.809h-17.53c-2.646 0-3.839 1.98-3.839 3.38v3.48c0 2.19 1.464 3.46 4.025 3.46h19.42c2.374 0 4.158 1.71 4.158 3.971v1.04c0 2.269-1.819 3.981-4.26 3.981h-20.91z" style="fill:#73ba25"/></g><g transform="translate(273.7 60.29)"><path d="m0 0c-2.31 0-4.055-1.712-4.055-3.981v-39.36c0-2.259 1.705-3.96 3.964-3.96h31.36c2.415 0 4.16 1.67 4.16 3.96v1.042c0 2.3-1.745 3.98-4.16 3.98h-25.69v10.02h18.82c2.41 0 4.161 1.69 4.161 3.981v1.04c0 2.301-1.751 3.971-4.161 3.971h-18.82v10.32h24.38c2.406 0 4.16 1.659 4.16 3.971v1.04c0 2.301-1.754 3.981-4.16 3.981h-29.97v-5e-3z" style="fill:#73ba25"/></g><g transform="translate(5.053 20.49)"><path d="m0 0v13.55c0 1.589 1.305 2.889 2.901 2.889h7.478c1.561 0 2.891-1.329 2.891-2.889v-13.55c0-1.6-1.295-2.899-2.891-2.899h-7.534c-1.6 0-2.845 1.271-2.845 2.899m2.077 21.08c-3.931 0-7.13-3.059-7.13-6.83v-14.84c0-3.831 3.096-6.951 6.891-6.951h9.599c3.795 0 6.891 3.12 6.891 6.951v14.84c0 3.769-3.201 6.83-7.13 6.83h-9.122 1e-3z" style="fill:#73ba25"/></g><g transform="translate(35.51 20.78)"><path d="m0 0v12.96c0 1.791 1.4 3.189 3.188 3.189h7.011c1.79 0 3.188-1.4 3.188-3.189v-12.96c0-1.759-1.435-3.188-3.188-3.188h-7.011c-1.755 0-3.188 1.429-3.188 3.188zm9.602 20.96c-2.767 0-4.854-0.989-6.529-1.799-1.021-0.49-1.905-0.912-2.591-0.912-0.31 0-0.575 0.14-0.715 0.37l-0.639 1.22c-0.159 0.321-0.799 0.949-1.59 0.949h-0.949c-0.912 0-1.642-0.819-1.642-1.818v-37.64c0-1.18 0.931-2.11 2.11-2.11h0.821c1.17 0 2.12 0.94 2.12 2.11v12.49c0 0.37 0.241 0.77 0.484 0.77 0.686 0 1.57-0.402 2.591-0.87 1.675-0.77 3.762-1.719 6.529-1.719h0.886c4.9 0 7.949 2.801 7.949 7.3v14.37c0 4.43-3.114 7.29-7.949 7.29h-0.886v2e-3z" style="fill:#73ba25"/></g><g transform="translate(66.07 34.09)"><path d="m0 0c0 1.591 1.251 2.839 2.843 2.839h7.71c1.589 0 2.829-1.248 2.829-2.839v-4.599h-13.38c2e-3 0.6 2e-3 4.599 2e-3 4.599zm2.075 7.48c-3.931 0-7.121-3.058-7.121-6.829v-14.73c0-3.82 3.101-7.059 6.76-7.059h9.903c1.225 0 2.11 0.848 2.11 2.001v0.649c0 1.159-0.885 1.99-2.11 1.99h-8.136c-2.28 0-3.483 1.121-3.483 3.252v4.309h14.68c2.361 0 3.757 1.44 3.757 3.88v5.71c0 3.769-3.196 6.83-7.11 6.83h-9.248v-4e-3z" style="fill:#73ba25"/></g><g transform="translate(104.9 41.74)"><path d="m0 0c-2.759 0-4.841-0.989-6.521-1.791-1.045-0.491-1.938-0.92-2.667-0.92-0.321 0-0.451 0.04-0.7 0.471l-0.581 1.06c-0.333 0.67-0.899 1.008-1.664 1.008h-0.816c-0.985 0-1.704-0.768-1.704-1.819v-24.69c0-1.169 0.924-2.109 2.115-2.109h0.815c1.17 0 2.124 0.95 2.124 2.109v18.68c0 1.75 1.43 3.188 3.18 3.188h7.014c1.755 0 3.185-1.438 3.185-3.188v-18.68c0-1.169 0.929-2.109 2.11-2.109h0.824c1.17 0 2.12 0.95 2.12 2.109v19.39c0 4.431-3.115 7.291-7.954 7.291h-0.88z" style="fill:#73ba25"/></g><g transform="translate(315.4 18.75)"><path d="m0 0h0.503c0.574 0 1.06 0.207 1.06 0.747 0 0.382-0.277 0.765-1.06 0.765-0.226 0-0.382-0.018-0.503-0.037v-1.475zm0-2.415h-0.695v4.358c0.365 0.053 0.713 0.105 1.233 0.105 0.662 0 1.095-0.138 1.354-0.329 0.262-0.19 0.402-0.484 0.402-0.904 0-0.571-0.382-0.919-0.851-1.059v-0.037c0.383-0.068 0.642-0.415 0.73-1.059 0.105-0.679 0.207-0.938 0.277-1.077h-0.729c-0.106 0.139-0.209 0.539-0.295 1.112-0.105 0.554-0.383 0.765-0.938 0.765h-0.486v-1.875h-2e-3zm0.73 5.575c-1.719 0-3.126-1.476-3.126-3.3 0-1.859 1.407-3.317 3.143-3.317 1.736-0.019 3.126 1.458 3.126 3.299 0 1.842-1.39 3.318-3.126 3.318h-0.017zm0.017 0.607c2.136 0 3.838-1.736 3.838-3.909 0-2.205-1.703-3.923-3.855-3.923-2.137 0-3.873 1.718-3.873 3.923 0 2.171 1.736 3.909 3.873 3.909h0.017z" style="fill:#73ba25"/></g></g></g></svg>
