/* XPM */
static char *font[] = {
/* columns rows colors chars-per-pixel */
"22 22 116 2",
"   c #000000",
".  c #2D4978",
"X  c #2E4A79",
"o  c #304C7B",
"O  c #334F7E",
"+  c #585858",
"@  c #365281",
"#  c #395584",
"$  c #3C5887",
"%  c #3F5B8A",
"&  c #435D88",
"*  c #435D8A",
"=  c #445E8A",
"-  c #425E8D",
";  c #48618C",
":  c #51678B",
">  c #456190",
",  c #4B6590",
"<  c #486493",
"1  c #4B6694",
"2  c #4B6796",
"3  c #4F6892",
"4  c #4E6894",
"5  c #4E6A99",
"6  c #556F9B",
"7  c #516D9C",
"8  c #526E9D",
"9  c #54709F",
"0  c #5C7298",
"q  c #5C7399",
"w  c #5C759E",
"e  c #687C9D",
"r  c #647BA1",
"t  c #677EA5",
"y  c #6F85AB",
"u  c #7183A2",
"i  c #7587A5",
"p  c #7387A8",
"a  c #758BAF",
"s  c #768BAF",
"d  c #7B8EAD",
"f  c #7B8EAE",
"g  c #8393AD",
"h  c #8395B2",
"j  c #8897B0",
"k  c #8899B5",
"l  c #94A2BB",
"z  c #97A4BA",
"x  c #97A5BE",
"c  c #9BA9C0",
"v  c #98A8C2",
"b  c #A3AFC4",
"n  c #A5B0C3",
"m  c #A6B1C2",
"M  c #BAC3D0",
"N  c #B9C3D3",
"B  c #BAC3D2",
"V  c #BCC4D1",
"C  c #C7C7C7",
"Z  c #C5C7CA",
"A  c #C3C7CF",
"S  c #C8C8C8",
"D  c #CBCBCB",
"F  c #C4CAD5",
"G  c #C4CBD6",
"H  c #C4CBD8",
"J  c #CDD3DE",
"K  c #D0D0D0",
"L  c #D1D1D1",
"P  c #D2D2D2",
"I  c #D3D3D3",
"U  c #D4D4D4",
"Y  c #D5D5D5",
"T  c #D6D6D6",
"R  c #D7D7D7",
"E  c #D8D9DB",
"W  c #DBDBDB",
"Q  c #DDDDDD",
"!  c #DEDEDE",
"~  c #D5DAE3",
"^  c #DADDE4",
"/  c #DADEE4",
"(  c #DCDFE4",
")  c #DCE0E5",
"_  c #E1E1E1",
"`  c #E3E3E3",
"'  c #E0E2E6",
"]  c #E2E4E6",
"[  c #E5E5E5",
"{  c #E6E6E6",
"}  c #E7E7E7",
"|  c #E4E6E8",
" . c #E8E8E8",
".. c #E9E9E9",
"X. c #EAEAEA",
"o. c #EBEBEB",
"O. c #EBECEE",
"+. c #ECECEC",
"@. c #EDEDED",
"#. c #ECEDEE",
"$. c #EDEDEE",
"%. c #EEEEEE",
"&. c #EFEFEF",
"*. c #F0F0F0",
"=. c #F1F1F1",
"-. c #F1F1F2",
";. c #F2F2F2",
":. c #F3F3F3",
">. c #F4F4F4",
",. c #F5F5F5",
"<. c #F6F6F6",
"1. c #F7F7F7",
"2. c #F8F8F8",
"3. c #F9F9F9",
"4. c #FBFBFB",
"5. c None",
/* pixels */
"5.5.5.5.5.5.5.5.5.5.5.5.5.5.5.5.5.5.5.5.5.5.",
"5.5.<.4.4.4.4.4.4.4.4.4.4.4.4.4.4.2.4.<.5.5.",
"5.:.<.<.:.:.<.<.<.<.:.<.:.<.<.<.>.&.>.<.:.5.",
"5.4.:.:.<.:.:.:.:.<.:.<.:.<.:.:.>.} >.:.4.5.",
"5.4.:.:.:.:.:.:.*.} Q T k 8 m E T S } &.4.5.",
"5.<.:.:.:.:.:.:.>.>.>.~ 8 8 v :.:.E >.:.<.5.",
"5.<.:.:.:.:.:.:.:.:.:.s y 5 s :.:.T :.:.<.5.",
"5.<.:.&.:.:.:.:.:.:.N t J 1 6 :.:.T &.:.<.5.",
"5.>.&.&.+.:.&.:.*.O.w H O.< < / :.I :.:.:.5.",
"5.>.&.:.} &.:.&.:.x d *.:.r > N &.T &.&.:.5.",
"5.:.&.&.E &.&.:.) 3 / :.:.h - x &.T &.&.:.5.",
"5.&.&.&.I &.:.&.d l *.*.&.b % i &.I &.&.&.5.",
"5.&.&.&.I &.&.G ; ) ] } | M % 3 &.I &.o.&.5.",
"5.&.o.&.I &.&.q > = * * * * # # ) T &.&.&.5.",
"5.o.o.&.K &.m 0 &.&.&.+.&.&.; @ V K &.o.o.5.",
"5.o.o.o.K ] & F +.+.&.+.o.O.e O z K o.o.o.5.",
"5.o.o.o.D g i &.&.&.o.&.&.o.g O u I o.o.o.5.",
"5.} ` A X X . : K D D K Z . . . . X R ` } 5.",
"5.o.} } T o.o.o.o.o.o.o.o.o.o.o.o.Q o.o.o.5.",
"5.C } o.Q } } } } } } } } } } } } ` } } C 5.",
"5.+ C o.} &.o.&.&.&.&.&.&.&.o.&.o.o.o.S + 5.",
"5.5.5.                                5.5.5."
};
