<?xml version="1.0" encoding="UTF-8" standalone="no"?><!DOCTYPE svg PUBLIC "-//W3C//DTD SVG 1.1//EN" "http://www.w3.org/Graphics/SVG/1.1/DTD/svg11.dtd"><svg width="100%" height="100%" viewBox="0 0 333 61" version="1.1" xmlns="http://www.w3.org/2000/svg" xmlns:xlink="http://www.w3.org/1999/xlink" xml:space="preserve" xmlns:serif="http://www.serif.com/" style="fill-rule:evenodd;clip-rule:evenodd;stroke-linejoin:round;stroke-miterlimit:2;"><g><g><g><path d="M130.527,41.183c0.785,0.363 1.623,0.49 2.517,0.49c1.848,-0 3.416,-0.617 4.705,-1.9l0.009,-0.009c1.219,-1.274 1.9,-3.026 1.9,-5.327l-0,-12.453c-0,-0.833 0.268,-1.57 0.852,-2.208c0.524,-0.572 1.176,-0.911 1.959,-0.911c0.741,-0 1.391,0.342 1.958,0.907c0.54,0.644 0.857,1.379 0.857,2.212l-0,11.829c-0,2.024 -0.348,3.883 -0.997,5.526c-0.703,1.64 -1.604,3.063 -2.705,4.266c-1.091,1.192 -2.382,2.058 -3.87,2.709c-1.49,0.65 -3.078,0.977 -4.668,0.977c-1.735,-0 -3.37,-0.38 -4.904,-1.138l-0.007,-0.003c-1.588,-0.759 -2.929,-1.787 -4.021,-3.144c-0.094,-0.117 -0.235,-0.186 -0.385,-0.188c-0.15,-0.002 -0.293,0.064 -0.389,0.178c-1.198,1.418 -2.545,2.454 -4.04,3.218c-1.484,0.756 -3.119,1.077 -4.9,1.077c-1.686,-0 -3.224,-0.325 -4.661,-0.976l-0.007,-0.003c-1.488,-0.65 -2.78,-1.515 -3.871,-2.707l-0.016,-0.016c-1.143,-1.143 -2.038,-2.557 -2.684,-4.188c-0.651,-1.643 -0.949,-3.507 -0.949,-5.588l0,-11.829c0,-0.834 0.269,-1.572 0.806,-2.212c0.524,-0.57 1.173,-0.907 1.955,-0.907c0.741,-0 1.388,0.343 1.958,0.907c0.539,0.644 0.855,1.379 0.855,2.212l0,12.453c0,2.24 0.626,3.992 1.844,5.265c1.236,1.347 2.862,1.971 4.77,1.971c0.901,-0 1.744,-0.128 2.533,-0.497c0.786,-0.309 1.52,-0.805 2.084,-1.42c0.557,-0.609 1.059,-1.4 1.394,-2.313c0.33,-0.842 0.55,-1.865 0.55,-3.006l-0,-12.453c-0,-0.834 0.269,-1.571 0.805,-2.212c0.526,-0.57 1.175,-0.907 1.957,-0.907c0.74,-0 1.388,0.343 1.956,0.907c0.54,0.644 0.857,1.379 0.857,2.212l-0,12.453c-0,1.141 0.169,2.163 0.498,3.005c0.336,0.914 0.837,1.706 1.395,2.314c0.566,0.616 1.299,1.112 2.088,1.422l0.012,0.005Z" style="fill:#111;fill-rule:nonzero;"/><path d="M169.877,40.544c0.674,-0.487 1.345,-0.738 2.065,-0.738c0.692,-0 1.292,0.288 1.813,0.754c0.483,0.532 0.741,1.153 0.741,1.914c-0,0.673 -0.17,1.205 -0.432,1.64c-0.327,0.459 -0.692,0.862 -1.105,1.167c-0.258,0.169 -0.604,0.385 -0.999,0.6l-0.002,0.001c-0.391,0.216 -0.933,0.428 -1.569,0.641c-0.698,0.219 -1.443,0.438 -2.34,0.545l-0.031,0.005c-0.906,0.166 -1.964,0.219 -3.172,0.219c-1.889,0 -3.58,-0.321 -5.169,-1.082c-1.598,-0.765 -2.999,-1.745 -4.198,-3.056c-1.2,-1.31 -2.099,-2.785 -2.748,-4.533l-0.005,-0.011c-0.701,-1.754 -1,-3.617 -1,-5.587c-0,-1.97 0.35,-3.776 1.052,-5.526c0.701,-1.699 1.602,-3.179 2.805,-4.492c1.147,-1.253 2.495,-2.235 4.089,-2.998c1.541,-0.704 3.179,-1.084 4.967,-1.084c1.73,-0 3.364,0.377 4.848,1.133c1.499,0.766 2.85,1.692 3.949,2.892c1.099,1.201 1.949,2.568 2.599,4.096c0.597,1.522 0.947,3.099 0.947,4.676c-0,1.107 -0.364,2.015 -1.008,2.718c-0.628,0.684 -1.433,1.025 -2.375,1.025l-15.486,0c-0.144,0 -0.281,0.062 -0.377,0.171c-0.095,0.108 -0.139,0.253 -0.12,0.396c0.112,0.87 0.447,1.617 0.958,2.363c0.447,0.729 1.006,1.339 1.678,1.826c0.661,0.482 1.379,0.901 2.148,1.145l0.011,0.004c0.777,0.297 1.606,0.419 2.435,0.419c1.248,0 2.279,-0.122 3.093,-0.36c0.85,-0.247 1.469,-0.505 1.926,-0.873l0.012,-0.01Zm-5.238,-16.229c-0.904,-0 -1.753,0.185 -2.542,0.555c-0.77,0.361 -1.482,0.783 -2.088,1.323c-0.66,0.544 -1.161,1.151 -1.55,1.818c-0.452,0.742 -0.73,1.422 -0.842,2.162c-0.022,0.145 0.02,0.292 0.116,0.402c0.095,0.111 0.234,0.175 0.38,0.175l13.103,0c0.148,0 0.288,-0.065 0.383,-0.177c0.095,-0.113 0.136,-0.261 0.112,-0.407c-0.111,-0.67 -0.384,-1.345 -0.775,-2.078c-0.393,-0.731 -0.895,-1.342 -1.507,-1.891c-0.609,-0.544 -1.326,-0.97 -2.156,-1.332c-0.839,-0.367 -1.737,-0.55 -2.634,-0.55Z" style="fill:#111;fill-rule:nonzero;"/><path d="M183.425,8.401c0,-0.833 0.268,-1.569 0.853,-2.207c0.523,-0.571 1.175,-0.912 1.959,-0.912c0.741,-0 1.389,0.343 1.957,0.909c0.54,0.642 0.857,1.377 0.857,2.21l0,12.961c0,0.207 0.127,0.393 0.32,0.467c0.193,0.075 0.413,0.024 0.552,-0.128c0.543,-0.593 1.385,-1.236 2.521,-1.883c1.121,-0.641 2.491,-0.953 4.101,-0.953c1.686,-0 3.322,0.378 4.86,1.083c1.547,0.766 2.896,1.747 4.096,3.003c1.2,1.312 2.101,2.79 2.801,4.54c0.701,1.753 1.051,3.557 1.051,5.529c0,1.974 -0.35,3.838 -1.001,5.592c-0.703,1.754 -1.602,3.287 -2.705,4.548c-1.148,1.307 -2.496,2.287 -4.042,3.051c-1.536,0.756 -3.169,1.08 -4.853,1.08c-1.762,-0 -3.183,-0.312 -4.307,-0.955l-0.01,-0.005c-1.191,-0.649 -2.088,-1.297 -2.733,-1.947c-0.143,-0.145 -0.359,-0.188 -0.547,-0.111c-0.188,0.078 -0.311,0.261 -0.311,0.464c-0,0.273 -0.089,0.592 -0.214,0.865c-0.134,0.294 -0.311,0.587 -0.535,0.83l-0.001,0.002c-0.262,0.287 -0.522,0.478 -0.826,0.62l-0.03,0.015c-0.332,0.183 -0.668,0.222 -1.001,0.222c-0.778,-0 -1.427,-0.284 -1.946,-0.898l-0.027,-0.029c-0.58,-0.585 -0.839,-1.318 -0.839,-2.193l0,-35.77Zm5.107,24.619c0,1.251 0.166,2.381 0.547,3.45c0.384,1.082 0.933,1.981 1.591,2.76c0.669,0.79 1.503,1.402 2.451,1.828c0.941,0.484 1.998,0.671 3.113,0.671c1.114,0 2.117,-0.243 3.12,-0.73l0.01,-0.005c0.939,-0.482 1.766,-1.087 2.484,-1.933c0.658,-0.778 1.205,-1.677 1.591,-2.755c0.382,-1.014 0.6,-2.09 0.6,-3.286c0,-1.138 -0.218,-2.214 -0.602,-3.232l-0.008,-0.022c-0.435,-1.01 -0.979,-1.899 -1.632,-2.673l-0.013,-0.015c-0.715,-0.78 -1.538,-1.381 -2.473,-1.861c-0.951,-0.49 -1.957,-0.735 -3.077,-0.735c-1.111,0 -2.165,0.242 -3.107,0.667l-0.023,0.011c-0.936,0.482 -1.76,1.084 -2.421,1.805l-0.013,0.016c-0.656,0.777 -1.205,1.676 -1.588,2.694l-0.003,0.008c-0.382,1.074 -0.547,2.146 -0.547,3.337Z" style="fill:#111;fill-rule:nonzero;"/><path d="M258.868,44.171c-0,0.882 -0.314,1.618 -0.853,2.207l-0.013,0.015c-0.517,0.612 -1.163,0.898 -1.895,0.898c-0.78,-0 -1.429,-0.284 -1.947,-0.898l-0.027,-0.029c-0.58,-0.585 -0.841,-1.318 -0.841,-2.193l0,-12.452c0,-2.178 -0.673,-3.932 -1.893,-5.263l-0.008,-0.009c-1.234,-1.285 -2.803,-1.965 -4.711,-1.965c-0.893,0 -1.786,0.183 -2.565,0.488l-0.03,0.013c-0.786,0.368 -1.512,0.86 -2.074,1.473c-0.558,0.608 -1.057,1.399 -1.392,2.249l-0.004,0.012c-0.329,0.901 -0.497,1.922 -0.497,3.002l-0,12.452c-0,0.882 -0.314,1.618 -0.852,2.208l-0.013,0.014c-0.517,0.614 -1.163,0.898 -1.898,0.898c-0.777,-0 -1.426,-0.282 -1.945,-0.898l-0.027,-0.029c-0.578,-0.585 -0.839,-1.317 -0.839,-2.193l-0,-12.452c-0,-1.08 -0.219,-2.101 -0.548,-3.002l-0.004,-0.011c-0.333,-0.85 -0.836,-1.642 -1.392,-2.25c-0.562,-0.614 -1.236,-1.104 -2.022,-1.473l-0.031,-0.013c-0.783,-0.306 -1.619,-0.488 -2.514,-0.488c-1.907,0 -3.475,0.678 -4.709,1.962c-1.276,1.276 -1.904,3.031 -1.904,5.275l-0,12.452c-0,0.882 -0.314,1.617 -0.853,2.207c-0.567,0.619 -1.219,0.913 -1.96,0.913c-0.779,-0 -1.428,-0.284 -1.948,-0.898l-0.026,-0.029c-0.58,-0.585 -0.839,-1.318 -0.839,-2.193l-0,-11.83c-0,-1.965 0.295,-3.822 0.996,-5.462l0.005,-0.012c0.65,-1.638 1.549,-3.059 2.649,-4.26c1.091,-1.193 2.382,-2.115 3.87,-2.765c1.491,-0.653 3.03,-0.977 4.719,-0.977c1.685,-0 3.323,0.38 4.909,1.138c1.545,0.762 2.89,1.853 4.036,3.161c0.096,0.11 0.236,0.173 0.382,0.172c0.146,-0.002 0.285,-0.067 0.379,-0.179c1.148,-1.36 2.494,-2.397 3.988,-3.159c1.487,-0.756 3.171,-1.133 4.953,-1.133c1.589,-0 3.128,0.325 4.615,0.977c1.49,0.651 2.782,1.574 3.926,2.713c1.1,1.202 1.997,2.618 2.645,4.253c0.652,1.7 1.002,3.562 1.002,5.533l-0,11.83Z" style="fill:#111;fill-rule:nonzero;"/><path d="M272.956,44.171c0,0.882 -0.312,1.617 -0.851,2.207c-0.568,0.619 -1.219,0.913 -1.962,0.913c-0.778,-0 -1.427,-0.284 -1.945,-0.898l-0.027,-0.029c-0.58,-0.585 -0.839,-1.318 -0.839,-2.193l-0,-21.621c-0,-0.833 0.268,-1.57 0.852,-2.207c0.523,-0.572 1.174,-0.912 1.959,-0.912c0.741,-0 1.389,0.343 1.958,0.908c0.54,0.643 0.855,1.378 0.855,2.211l0,21.621Zm-6.35,-32.713c-0,-1.059 0.321,-1.967 1.059,-2.773c0.677,-0.741 1.486,-1.14 2.478,-1.14c0.945,0 1.75,0.399 2.471,1.132c0.697,0.815 1.067,1.722 1.067,2.781c-0,1.109 -0.366,2.017 -1.058,2.774c-0.722,0.789 -1.532,1.138 -2.48,1.138c-0.986,0 -1.794,-0.341 -2.467,-1.126l-0.022,-0.023c-0.735,-0.754 -1.048,-1.66 -1.048,-2.763Z" style="fill:#111;fill-rule:nonzero;"/><path d="M302.03,33.023c-0,-1.13 -0.218,-2.2 -0.544,-3.211l-0.008,-0.023c-0.383,-1.018 -0.879,-1.914 -1.537,-2.692c-0.66,-0.785 -1.486,-1.39 -2.369,-1.873c-0.901,-0.49 -1.912,-0.74 -3.038,-0.74c-1.122,0 -2.191,0.251 -3.088,0.74c-0.884,0.483 -1.656,1.087 -2.318,1.873c-0.662,0.783 -1.213,1.687 -1.543,2.711c-0.378,1.007 -0.543,2.081 -0.543,3.215l-0,11.15c-0,0.882 -0.316,1.619 -0.855,2.207c-0.566,0.62 -1.217,0.912 -1.958,0.912c-0.78,0 -1.43,-0.282 -1.949,-0.897l-0.027,-0.03c-0.578,-0.583 -0.839,-1.317 -0.839,-2.192l0,-11.15c0,-1.971 0.3,-3.778 1.001,-5.529c0.7,-1.751 1.601,-3.228 2.801,-4.542c1.199,-1.255 2.598,-2.235 4.194,-3c1.592,-0.705 3.284,-1.086 5.126,-1.086c1.789,0 3.482,0.381 5.073,1.086c1.595,0.765 2.992,1.744 4.189,3.053c1.204,1.313 2.105,2.793 2.806,4.491c0.7,1.751 1.052,3.556 1.052,5.527l-0,11.15c-0,0.882 -0.315,1.619 -0.853,2.207c-0.568,0.621 -1.218,0.912 -1.96,0.912c-0.78,0 -1.429,-0.281 -1.947,-0.897l-0.028,-0.03c-0.58,-0.584 -0.838,-1.317 -0.838,-2.192l-0,-11.15Z" style="fill:#111;fill-rule:nonzero;"/></g><g><path d="M56.384,7.92c0.101,0 0.199,-0.033 0.279,-0.095l0.543,-0.421c1.405,-1.084 2.779,-1.71 4.466,-2.027c0.839,-0.159 2.489,-0.175 3.231,-0.031c1.852,0.358 3.395,1.227 4.803,2.693c1.413,1.472 2.214,3.033 2.549,4.975c0.122,0.703 0.12,1.69 0.022,6.375c-0.043,2.109 -0.056,3.539 -0.034,3.827l0.03,0.162l0.049,0.102l0.061,0.077c0.111,0.104 1.712,1.066 4.304,2.559c3.749,2.159 3.966,2.293 4.91,3.277c1.179,1.226 1.948,2.779 2.308,4.635c0.161,0.833 0.178,2.445 0.031,3.151c-0.307,1.471 -0.902,2.696 -1.921,3.951c-1.004,1.239 -2.519,2.313 -4.067,2.886l-0.499,0.184c-0.178,0.066 -0.296,0.235 -0.298,0.424l-0.01,1.491c-0.01,1.569 -0.061,1.974 -0.411,3.108c-0.538,1.745 -1.697,3.419 -3.075,4.427c-0.616,0.449 -1.684,0.99 -2.49,1.261c-1.36,0.459 -2.629,0.624 -3.879,0.499c-0.957,-0.095 -1.885,-0.366 -2.787,-0.813c-0.603,-0.296 -0.839,-0.434 -5.167,-2.989l-2.819,-1.662c-0.139,-0.082 -0.311,-0.084 -0.452,-0.006l-3.794,2.113c-3.999,2.224 -4.379,2.431 -5.052,2.665c-0.807,0.28 -1.262,0.356 -2.26,0.388c-0.82,0.025 -1.036,0.016 -1.624,-0.089c-1.536,-0.27 -2.963,-0.847 -4.128,-1.671c-0.579,-0.411 -1.593,-1.481 -1.987,-2.095c-1.093,-1.708 -1.614,-3.639 -1.525,-5.666c0.017,-0.401 0.044,-0.821 0.063,-0.932l0.001,-0.004c0.022,-0.135 0.024,-0.228 0.015,-0.294l-0.061,-0.195l-0.13,-0.16l-0.187,-0.105l-0.002,-0.001c-0.408,-0.145 -1.201,-0.526 -1.667,-0.799c-0.733,-0.429 -1.18,-0.78 -1.845,-1.446c-2.055,-2.057 -2.919,-4.676 -2.459,-7.46c0.25,-1.517 0.795,-2.888 1.596,-4.011c0.383,-0.536 1.198,-1.361 1.738,-1.761c0.413,-0.304 4.419,-2.77 6.8,-4.186l0.964,-0.574c0.139,-0.082 0.224,-0.233 0.222,-0.395l-0.038,-4.604c-0.043,-4.928 -0.04,-5.221 0.237,-6.335c0.385,-1.543 1.161,-2.865 2.419,-4.131c1.484,-1.497 2.966,-2.319 4.783,-2.64c0.919,-0.163 2.515,-0.126 3.438,0.08c1.472,0.33 2.897,0.989 4.163,1.925l0.365,0.268c0.078,0.061 0.175,0.095 0.278,0.095Zm13.289,42.311c1.1,-0.384 1.819,-1.101 2.298,-2.325c0.218,-0.556 0.27,-1.433 0.121,-2.045c-0.186,-0.758 -0.443,-1.279 -1.346,-2.004c-0.804,-0.645 -2.178,-1.479 -4.626,-2.901c-4.35,-2.526 -4.501,-2.604 -5.009,-3.157c-0.466,-0.508 -0.654,-0.968 -0.654,-1.617c0,-0.501 0.134,-0.924 0.431,-1.385c0.29,-0.449 0.529,-0.673 0.955,-0.885c0.447,-0.221 0.892,-0.297 1.356,-0.227c0.882,0.135 0.876,0.157 5.635,2.893c2.023,1.161 3.871,2.196 4.108,2.301c0.814,0.362 1.659,0.547 2.48,0.55c0.763,0.004 0.814,-0.016 1.248,-0.23c0.808,-0.396 1.72,-1.492 2,-2.414c0.267,-0.879 0.217,-1.878 -0.117,-2.611c-0.287,-0.631 -0.953,-1.288 -2.206,-2.09c-0.472,-0.303 -4.272,-2.531 -6.726,-3.945c-1.85,-1.064 -2.184,-1.286 -2.514,-2.004c-0.365,-0.796 -0.331,-0.745 -0.277,-5.76c0.028,-2.566 0.032,-5.042 0.01,-5.504c-0.08,-1.651 -0.347,-2.373 -1.037,-3.087c-1.403,-1.452 -4.068,-1.512 -5.397,-0.142c-0.595,0.614 -0.954,1.354 -1.194,2.528c-0.105,0.517 -0.122,0.9 -0.172,5.668c-0.041,3.822 -0.066,5.084 -0.126,5.455c-0.179,1.109 -0.936,1.971 -1.955,2.195c-1.557,0.342 -2.944,-0.61 -3.209,-2.198c-0.068,-0.415 -0.067,-1.124 -0.028,-4.957c0.026,-2.51 0.027,-4.957 0.003,-5.436c-0.082,-1.685 -0.343,-2.394 -1.037,-3.114c-1.403,-1.451 -4.068,-1.513 -5.397,-0.141c-0.594,0.613 -0.952,1.348 -1.195,2.526c-0.108,0.524 -0.123,0.848 -0.164,5.814c-0.027,3.394 -0.053,5.172 -0.092,5.354c-0.217,0.937 -0.707,1.623 -1.509,2.108c-0.21,0.125 -1.064,0.639 -1.903,1.145c-0.839,0.506 -2.376,1.418 -3.413,2.027c-2.818,1.653 -3.541,2.156 -4.066,2.749c-0.505,0.572 -0.761,1.285 -0.761,2.194c-0.001,0.993 0.426,1.988 1.22,2.796c0.96,0.98 2.088,1.171 4.036,0.53c0.707,-0.233 1.319,-0.549 3.589,-1.886c2.195,-1.292 2.564,-1.504 4.247,-2.449c1.18,-0.664 1.532,-0.824 2.144,-0.916c0.969,-0.146 1.785,0.237 2.344,1.089c0.341,0.521 0.459,0.927 0.434,1.521c-0.016,0.385 -0.038,0.483 -0.186,0.807c-0.186,0.405 -0.568,0.872 -0.92,1.122c-0.339,0.242 -1.157,0.716 -3.961,2.307c-3.188,1.808 -3.898,2.232 -4.733,2.817c-1.134,0.796 -1.558,1.351 -1.818,2.287c-0.168,0.603 -0.104,1.67 0.129,2.206c0.366,0.842 1.187,1.712 1.948,2.076c0.428,0.205 1.03,0.355 1.377,0.355c0.618,0 1.806,-0.351 2.697,-0.812c0.582,-0.302 2.828,-1.555 5.405,-3.016c3.073,-1.741 3.168,-1.821 4.059,-1.826c0.86,-0.006 1.382,0.203 2.766,1.017c7.184,4.221 8.003,4.64 8.862,4.801l0.002,0c0.544,0.1 1.29,0.039 1.844,-0.154Z" style="fill:#111;fill-rule:nonzero;"/></g></g></g></svg>