<svg width="100%" height="100%" viewBox="0 0 333 61" version="1.1" xmlns="http://www.w3.org/2000/svg" xmlns:xlink="http://www.w3.org/1999/xlink" xml:space="preserve" xmlns:serif="http://www.serif.com/" style="fill-rule:evenodd;clip-rule:evenodd;stroke-linejoin:round;stroke-miterlimit:2;"><g><g><g><path d="M56.384,7.658c0.043,0 0.085,-0.014 0.119,-0.04l0.543,-0.421c1.44,-1.112 2.848,-1.752 4.578,-2.077c0.864,-0.164 2.564,-0.179 3.329,-0.032c1.905,0.37 3.493,1.261 4.942,2.77c1.452,1.512 2.274,3.116 2.618,5.112c0.123,0.708 0.125,1.702 0.026,6.424c-0.043,2.095 -0.056,3.516 -0.035,3.803c0.004,0.05 0.012,0.082 0.016,0.097l0.022,0.045l0.027,0.033c0.099,0.097 1.684,1.04 4.249,2.517c3.795,2.186 4.012,2.327 4.968,3.322c1.213,1.261 2.006,2.858 2.376,4.767c0.167,0.861 0.182,2.525 0.03,3.255c-0.315,1.512 -0.926,2.771 -1.973,4.062c-1.032,1.273 -2.589,2.378 -4.18,2.966l-0.499,0.185c-0.076,0.028 -0.126,0.1 -0.127,0.18l-0.01,1.491c-0.01,1.607 -0.064,2.021 -0.423,3.183c-0.554,1.799 -1.751,3.523 -3.17,4.561c-0.634,0.462 -1.732,1.019 -2.561,1.298c-1.399,0.473 -2.704,0.64 -3.989,0.511c-0.988,-0.098 -1.946,-0.377 -2.877,-0.838c-0.605,-0.297 -0.841,-0.435 -5.184,-2.998l-2.819,-1.662c-0.059,-0.035 -0.132,-0.036 -0.192,-0.003l-3.794,2.113c-4.03,2.242 -4.415,2.448 -5.093,2.683c-0.835,0.29 -1.305,0.37 -2.338,0.403c-0.847,0.026 -1.07,0.015 -1.678,-0.093c-1.576,-0.277 -3.039,-0.87 -4.233,-1.715c-0.599,-0.426 -1.649,-1.532 -2.057,-2.168c-1.122,-1.754 -1.657,-3.737 -1.566,-5.818c0.017,-0.416 0.047,-0.851 0.067,-0.967l0,-0.001c0.037,-0.219 -0.002,-0.318 -0.057,-0.378l-0.057,-0.048l-0.079,-0.039c-0.419,-0.149 -1.234,-0.54 -1.712,-0.82c-0.754,-0.441 -1.214,-0.802 -1.898,-1.487c-2.118,-2.12 -3.007,-4.819 -2.533,-7.688c0.258,-1.558 0.819,-2.967 1.642,-4.12c0.395,-0.554 1.238,-1.407 1.795,-1.82c0.413,-0.304 4.433,-2.78 6.823,-4.2l0.963,-0.574c0.059,-0.035 0.095,-0.099 0.094,-0.167l-0.038,-4.604c-0.043,-4.98 -0.035,-5.276 0.245,-6.402c0.396,-1.587 1.193,-2.949 2.487,-4.251c1.527,-1.54 3.053,-2.384 4.923,-2.714c0.947,-0.167 2.591,-0.13 3.541,0.083c1.507,0.337 2.966,1.012 4.261,1.969l0.365,0.268c0.034,0.028 0.077,0.044 0.123,0.044Zm13.203,42.326c1.026,-0.359 1.693,-1.031 2.141,-2.173c0.2,-0.513 0.247,-1.323 0.11,-1.888c-0.174,-0.705 -0.415,-1.187 -1.256,-1.861c-0.798,-0.641 -2.163,-1.468 -4.593,-2.879c-4.408,-2.56 -4.556,-2.646 -5.071,-3.207c-0.517,-0.563 -0.723,-1.074 -0.723,-1.794c0,-0.552 0.146,-1.019 0.473,-1.527c0.321,-0.496 0.587,-0.743 1.059,-0.978c0.497,-0.246 0.995,-0.329 1.511,-0.251c0.896,0.138 0.895,0.148 5.727,2.924c2.01,1.155 3.848,2.185 4.083,2.29c0.78,0.346 1.589,0.524 2.375,0.527c0.691,0.003 0.739,-0.009 1.132,-0.203c0.754,-0.369 1.603,-1.394 1.865,-2.255c0.248,-0.817 0.205,-1.745 -0.106,-2.426c-0.272,-0.601 -0.916,-1.216 -2.108,-1.979c-0.472,-0.301 -4.266,-2.526 -6.715,-3.938c-1.942,-1.117 -2.276,-1.369 -2.622,-2.122c-0.372,-0.811 -0.356,-0.758 -0.301,-5.872c0.029,-2.558 0.033,-5.028 0.01,-5.488c-0.076,-1.558 -0.312,-2.244 -0.964,-2.918c-1.305,-1.351 -3.784,-1.417 -5.02,-0.142c-0.564,0.582 -0.898,1.286 -1.125,2.398c-0.104,0.513 -0.118,0.892 -0.167,5.619c-0.041,3.849 -0.069,5.121 -0.129,5.494c-0.198,1.22 -1.036,2.162 -2.157,2.409c-1.71,0.375 -3.233,-0.668 -3.524,-2.411c-0.069,-0.419 -0.071,-1.134 -0.031,-5.002c0.025,-2.504 0.026,-4.944 0.002,-5.421c-0.077,-1.591 -0.308,-2.266 -0.964,-2.945c-1.305,-1.35 -3.784,-1.417 -5.02,-0.141c-0.562,0.581 -0.896,1.281 -1.126,2.397c-0.108,0.519 -0.118,0.841 -0.159,5.763c-0.028,3.432 -0.059,5.228 -0.099,5.409c-0.233,1.012 -0.763,1.752 -1.629,2.275c-0.207,0.124 -1.063,0.639 -1.903,1.145c-0.84,0.507 -2.377,1.419 -3.416,2.029c-2.77,1.625 -3.486,2.113 -4.002,2.697c-0.464,0.525 -0.695,1.184 -0.695,2.02c-0.001,0.929 0.403,1.857 1.145,2.612c0.895,0.915 1.951,1.063 3.767,0.465c0.698,-0.23 1.3,-0.544 3.538,-1.863c2.198,-1.293 2.567,-1.505 4.252,-2.452c1.228,-0.691 1.596,-0.85 2.233,-0.946c1.075,-0.162 1.982,0.259 2.602,1.204c0.376,0.575 0.505,1.021 0.477,1.676c-0.018,0.432 -0.044,0.542 -0.209,0.905c-0.204,0.442 -0.622,0.953 -1.007,1.227c-0.341,0.243 -1.163,0.72 -3.984,2.321c-3.173,1.8 -3.881,2.221 -4.712,2.804c-1.066,0.747 -1.471,1.263 -1.716,2.142c-0.155,0.555 -0.098,1.538 0.117,2.032c0.342,0.788 1.109,1.603 1.821,1.944c0.393,0.188 0.946,0.329 1.264,0.329c0.591,0 1.725,-0.342 2.576,-0.782c0.582,-0.302 2.824,-1.553 5.397,-3.012c3.163,-1.792 3.269,-1.855 4.186,-1.86c0.901,-0.006 1.452,0.201 2.901,1.053c7.12,4.184 7.926,4.61 8.777,4.769c0.505,0.093 1.198,0.036 1.712,-0.143Z" style="fill:#111;fill-rule:nonzero;"/></g></g><g><g><path d="M114.352,47.108c-2.021,-0 -3.795,-0.297 -5.32,-0.897c-1.506,-0.593 -2.768,-1.417 -3.784,-2.477c-1.015,-1.059 -1.776,-2.316 -2.283,-3.77c-0.515,-1.474 -0.771,-3.066 -0.771,-4.776l0,-14.243c0,-0.539 0.267,-1.016 0.766,-1.449c0.541,-0.471 1.259,-0.694 2.145,-0.694c0.841,0 1.518,0.218 2.019,0.683c0.471,0.436 0.72,0.918 0.72,1.46l0,14.469c0,2.254 0.65,3.903 1.892,4.968c1.232,1.057 2.768,1.594 4.616,1.594c1.85,-0 3.378,-0.538 4.591,-1.597c1.22,-1.065 1.86,-2.712 1.86,-4.965l-0,-14.469c-0,-0.54 0.258,-1.02 0.742,-1.455c0.521,-0.467 1.208,-0.688 2.054,-0.688c0.854,0 1.564,0.227 2.123,0.699c0.512,0.432 0.788,0.907 0.788,1.444l-0,14.243c-0,1.71 -0.256,3.302 -0.771,4.776c-0.507,1.454 -1.268,2.711 -2.283,3.77c-1.016,1.06 -2.278,1.884 -3.784,2.477c-1.525,0.6 -3.299,0.897 -5.32,0.897Z" style="fill:#111;fill-rule:nonzero;"/><path d="M255.868,44.171c-0,0.882 -0.314,1.618 -0.853,2.207l-0.013,0.015c-0.517,0.612 -1.163,0.898 -1.895,0.898c-0.78,-0 -1.429,-0.284 -1.947,-0.898l-0.027,-0.029c-0.58,-0.585 -0.841,-1.318 -0.841,-2.193l0,-12.452c0,-2.178 -0.673,-3.932 -1.893,-5.263l-0.008,-0.009c-1.234,-1.285 -2.803,-1.965 -4.711,-1.965c-0.893,0 -1.786,0.183 -2.565,0.488l-0.03,0.013c-0.786,0.368 -1.512,0.86 -2.074,1.473c-0.558,0.608 -1.057,1.399 -1.392,2.249l-0.004,0.012c-0.329,0.901 -0.497,1.922 -0.497,3.002l-0,12.452c-0,0.882 -0.314,1.618 -0.852,2.208l-0.013,0.014c-0.517,0.614 -1.163,0.898 -1.898,0.898c-0.777,-0 -1.426,-0.282 -1.945,-0.898l-0.027,-0.029c-0.578,-0.585 -0.839,-1.317 -0.839,-2.193l-0,-12.452c-0,-1.08 -0.219,-2.101 -0.548,-3.002l-0.004,-0.011c-0.333,-0.85 -0.836,-1.642 -1.392,-2.25c-0.562,-0.614 -1.236,-1.104 -2.022,-1.473l-0.031,-0.013c-0.783,-0.306 -1.619,-0.488 -2.514,-0.488c-1.907,0 -3.475,0.678 -4.709,1.962c-1.276,1.276 -1.904,3.031 -1.904,5.275l-0,12.452c-0,0.882 -0.314,1.617 -0.853,2.207c-0.567,0.619 -1.219,0.913 -1.96,0.913c-0.779,-0 -1.428,-0.284 -1.948,-0.898l-0.026,-0.029c-0.58,-0.585 -0.839,-1.318 -0.839,-2.193l-0,-11.83c-0,-1.965 0.295,-3.822 0.996,-5.462l0.005,-0.012c0.65,-1.638 1.549,-3.059 2.649,-4.26c1.091,-1.193 2.382,-2.115 3.87,-2.765c1.491,-0.653 3.03,-0.977 4.719,-0.977c1.685,-0 3.323,0.38 4.909,1.138c1.545,0.762 2.89,1.853 4.036,3.161c0.096,0.11 0.236,0.173 0.382,0.172c0.146,-0.002 0.285,-0.067 0.379,-0.179c1.148,-1.36 2.494,-2.397 3.988,-3.159c1.487,-0.756 3.171,-1.133 4.953,-1.133c1.589,-0 3.128,0.325 4.615,0.977c1.49,0.651 2.782,1.574 3.926,2.713c1.1,1.202 1.997,2.618 2.645,4.253c0.652,1.7 1.002,3.562 1.002,5.533l-0,11.83Z" style="fill:#111;fill-rule:nonzero;"/><path d="M269.956,44.171c0,0.882 -0.312,1.617 -0.851,2.207c-0.568,0.619 -1.219,0.913 -1.962,0.913c-0.778,-0 -1.427,-0.284 -1.945,-0.898l-0.027,-0.029c-0.58,-0.585 -0.839,-1.318 -0.839,-2.193l-0,-21.621c-0,-0.833 0.268,-1.57 0.852,-2.207c0.523,-0.572 1.174,-0.912 1.959,-0.912c0.741,-0 1.389,0.343 1.958,0.908c0.54,0.643 0.855,1.378 0.855,2.211l0,21.621Zm-6.35,-32.713c-0,-1.059 0.321,-1.967 1.059,-2.773c0.677,-0.741 1.486,-1.14 2.478,-1.14c0.945,0 1.75,0.399 2.471,1.132c0.697,0.815 1.067,1.722 1.067,2.781c-0,1.109 -0.366,2.017 -1.058,2.774c-0.722,0.789 -1.532,1.138 -2.48,1.138c-0.986,0 -1.794,-0.341 -2.467,-1.126l-0.022,-0.023c-0.735,-0.754 -1.048,-1.66 -1.048,-2.763Z" style="fill:#111;fill-rule:nonzero;"/><path d="M299.03,33.023c-0,-1.13 -0.218,-2.2 -0.544,-3.211l-0.008,-0.023c-0.383,-1.018 -0.879,-1.914 -1.537,-2.692c-0.66,-0.785 -1.486,-1.39 -2.369,-1.873c-0.901,-0.49 -1.912,-0.74 -3.038,-0.74c-1.122,0 -2.191,0.251 -3.088,0.74c-0.884,0.483 -1.656,1.087 -2.318,1.873c-0.662,0.783 -1.213,1.687 -1.543,2.711c-0.378,1.007 -0.543,2.081 -0.543,3.215l-0,11.15c-0,0.882 -0.316,1.619 -0.855,2.207c-0.566,0.62 -1.217,0.912 -1.958,0.912c-0.78,0 -1.43,-0.282 -1.949,-0.897l-0.027,-0.03c-0.578,-0.583 -0.839,-1.317 -0.839,-2.192l0,-11.15c0,-1.971 0.3,-3.778 1.001,-5.529c0.7,-1.751 1.601,-3.228 2.801,-4.542c1.199,-1.255 2.598,-2.235 4.194,-3c1.592,-0.705 3.284,-1.086 5.126,-1.086c1.789,0 3.482,0.381 5.073,1.086c1.595,0.765 2.992,1.744 4.189,3.053c1.204,1.313 2.105,2.793 2.806,4.491c0.7,1.751 1.052,3.556 1.052,5.527l-0,11.15c-0,0.882 -0.315,1.619 -0.853,2.207c-0.568,0.621 -1.218,0.912 -1.96,0.912c-0.78,0 -1.429,-0.281 -1.947,-0.897l-0.028,-0.03c-0.58,-0.584 -0.838,-1.317 -0.838,-2.192l-0,-11.15Z" style="fill:#111;fill-rule:nonzero;"/></g><path d="M132.61,43.304c-0.086,-0.177 -0.139,-0.396 -0.168,-0.657c-0.031,-0.273 -0.007,-0.547 0.07,-0.821c0.08,-0.284 0.208,-0.553 0.384,-0.806c0.153,-0.221 0.372,-0.383 0.651,-0.493l0.012,-0.005c0.457,-0.194 0.855,-0.298 1.197,-0.298c0.322,-0 0.607,0.049 0.852,0.155c0.265,0.115 0.513,0.262 0.745,0.443c0.27,0.211 0.541,0.412 0.812,0.603c1.171,0.877 2.999,1.342 5.497,1.342c1.343,0 2.419,-0.305 3.238,-0.886c0.89,-0.633 1.329,-1.472 1.329,-2.511c0,-1.04 -0.413,-1.865 -1.235,-2.476c-0.722,-0.536 -1.634,-0.996 -2.737,-1.374c-1.053,-0.36 -2.182,-0.72 -3.387,-1.08c-1.158,-0.345 -2.242,-0.818 -3.253,-1.418c-0.982,-0.584 -1.795,-1.335 -2.438,-2.255c-0.633,-0.906 -0.935,-2.129 -0.935,-3.662c0,-2.478 0.871,-4.489 2.623,-6.028c1.781,-1.566 4.24,-2.331 7.366,-2.331c1.402,-0 2.619,0.117 3.652,0.354c1.022,0.235 1.871,0.513 2.546,0.838c0.644,0.311 1.151,0.643 1.517,1.005c0.345,0.341 0.589,0.654 0.72,0.947l0.01,0.021c0.227,0.449 0.309,0.97 0.261,1.563c-0.043,0.526 -0.257,0.935 -0.654,1.222c-0.619,0.397 -1.179,0.55 -1.7,0.414c-0.602,-0.158 -1.151,-0.376 -1.647,-0.657l-0.025,-0.013c-0.31,-0.154 -0.804,-0.375 -1.482,-0.663c-0.711,-0.301 -1.776,-0.464 -3.198,-0.464c-1.375,-0 -2.41,0.354 -3.119,1.013c-0.737,0.686 -1.106,1.536 -1.106,2.553c0,0.903 0.41,1.611 1.251,2.11c0.694,0.412 1.567,0.788 2.618,1.122c1.011,0.321 2.107,0.66 3.289,1.019c1.132,0.344 2.182,0.832 3.15,1.464c0.945,0.619 1.729,1.441 2.354,2.466c0.623,1.023 0.923,2.348 0.923,3.971c0,2.47 -0.864,4.431 -2.61,5.878c-1.784,1.477 -4.227,2.199 -7.321,2.199c-1.148,-0 -2.268,-0.101 -3.36,-0.303c-1.086,-0.2 -2.081,-0.482 -2.983,-0.847c-0.891,-0.36 -1.665,-0.773 -2.319,-1.241c-0.612,-0.437 -1.076,-0.904 -1.386,-1.407l-0.004,-0.006Z" style="fill:#111;fill-rule:nonzero;"/><path d="M202.94,23.889c-0.868,0 -1.656,0.059 -2.366,0.177c-0.768,0.126 -1.417,0.384 -1.951,0.765c-0.551,0.392 -0.975,0.955 -1.261,1.697c-0.266,0.688 -0.405,1.577 -0.405,2.668l-0,15.77c-0,0.544 -0.25,1.029 -0.724,1.468c-0.503,0.466 -1.182,0.685 -2.027,0.685c-0.889,0 -1.609,-0.223 -2.153,-0.696c-0.501,-0.436 -0.769,-0.916 -0.769,-1.457l0,-15.543c0,-3.423 0.908,-6.069 2.764,-7.925c1.864,-1.864 4.835,-2.763 8.892,-2.763c1.806,-0 3.184,0.328 4.122,1.03c0.852,0.636 1.168,1.533 0.976,2.679c-0.088,0.521 -0.254,0.903 -0.546,1.121c-0.312,0.231 -0.687,0.366 -1.124,0.412c-0.501,0.053 -1.039,0.052 -1.612,-0.001c-0.625,-0.058 -1.231,-0.087 -1.816,-0.087Z" style="fill:#111;fill-rule:nonzero;"/></g><path d="M166.113,35.158c-0.191,-0 -0.373,0.082 -0.5,0.226c-0.126,0.143 -0.185,0.335 -0.16,0.524c0.116,0.908 0.46,1.686 0.987,2.464c0.452,0.746 1.025,1.378 1.712,1.883c0.678,0.499 1.414,0.932 2.201,1.184c0.788,0.307 1.64,0.435 2.493,0.435c1.268,-0 2.314,-0.127 3.141,-0.372c0.88,-0.259 1.52,-0.532 1.991,-0.92c0.635,-0.465 1.275,-0.713 1.964,-0.713c0.647,-0 1.208,0.275 1.696,0.716c0.452,0.506 0.694,1.099 0.694,1.825c-0,0.645 -0.159,1.155 -0.406,1.573c-0.315,0.449 -0.665,0.84 -1.06,1.138c-0.258,0.17 -0.599,0.386 -0.987,0.6l-0.003,0.002c-0.383,0.213 -0.912,0.422 -1.535,0.634c-0.693,0.219 -1.428,0.439 -2.312,0.546l-0.042,0.006c-0.897,0.167 -1.945,0.219 -3.141,0.219c-1.862,-0 -3.529,-0.319 -5.096,-1.079c-1.578,-0.765 -2.962,-1.744 -4.148,-3.055c-1.186,-1.31 -2.075,-2.787 -2.716,-4.535l-0.006,-0.015c-0.694,-1.757 -0.99,-3.624 -0.99,-5.598c0,-1.973 0.346,-3.781 1.041,-5.535c0.694,-1.701 1.585,-3.183 2.776,-4.498c1.133,-1.252 2.463,-2.234 4.038,-2.996c1.517,-0.702 3.132,-1.081 4.894,-1.081c1.702,0 3.31,0.376 4.77,1.128c1.481,0.766 2.817,1.691 3.903,2.891c1.085,1.2 1.924,2.564 2.566,4.09c0.593,1.53 0.939,3.106 0.939,4.683c0,1.078 -0.347,1.962 -0.966,2.646c-0.596,0.657 -1.36,0.984 -2.252,0.984l-15.486,-0Zm6.526,-11.282c-0.929,0 -1.803,0.194 -2.615,0.578c-0.783,0.372 -1.507,0.808 -2.124,1.363c-0.675,0.562 -1.186,1.19 -1.584,1.88c-0.462,0.77 -0.746,1.475 -0.861,2.243c-0.029,0.192 0.027,0.386 0.154,0.533c0.126,0.147 0.31,0.232 0.504,0.232l13.103,-0c0.196,-0 0.381,-0.086 0.508,-0.235c0.126,-0.149 0.181,-0.346 0.149,-0.539c-0.113,-0.693 -0.391,-1.392 -0.791,-2.15c-0.401,-0.757 -0.914,-1.389 -1.54,-1.957l-0.001,-0.001c-0.622,-0.561 -1.352,-1.001 -2.2,-1.376c-0.861,-0.381 -1.782,-0.571 -2.702,-0.571Z" style="fill:#111;fill-rule:nonzero;"/></g></svg>