<svg width="100%" height="100%" viewBox="0 0 333 61" version="1.1" xmlns="http://www.w3.org/2000/svg" xmlns:xlink="http://www.w3.org/1999/xlink" xml:space="preserve" xmlns:serif="http://www.serif.com/" style="fill-rule:evenodd;clip-rule:evenodd;stroke-linejoin:round;stroke-miterlimit:2;"><g><g><g><path d="M130.527,41.183c0.785,0.363 1.623,0.49 2.517,0.49c1.848,-0 3.416,-0.617 4.705,-1.9l0.009,-0.009c1.219,-1.274 1.9,-3.026 1.9,-5.327l-0,-12.453c-0,-0.833 0.268,-1.57 0.852,-2.208c0.524,-0.572 1.176,-0.911 1.959,-0.911c0.741,-0 1.391,0.342 1.958,0.907c0.54,0.644 0.857,1.379 0.857,2.212l-0,11.829c-0,2.024 -0.348,3.883 -0.997,5.526c-0.703,1.64 -1.604,3.063 -2.705,4.266c-1.091,1.192 -2.382,2.058 -3.87,2.709c-1.49,0.65 -3.078,0.977 -4.668,0.977c-1.735,-0 -3.37,-0.38 -4.904,-1.138l-0.007,-0.003c-1.588,-0.759 -2.929,-1.787 -4.021,-3.144c-0.094,-0.117 -0.235,-0.186 -0.385,-0.188c-0.15,-0.002 -0.293,0.064 -0.389,0.178c-1.198,1.418 -2.545,2.454 -4.04,3.218c-1.484,0.756 -3.119,1.077 -4.9,1.077c-1.686,-0 -3.224,-0.325 -4.661,-0.976l-0.007,-0.003c-1.488,-0.65 -2.78,-1.515 -3.871,-2.707l-0.016,-0.016c-1.143,-1.143 -2.038,-2.557 -2.684,-4.188c-0.651,-1.643 -0.949,-3.507 -0.949,-5.588l0,-11.829c0,-0.834 0.269,-1.572 0.806,-2.212c0.524,-0.57 1.173,-0.907 1.955,-0.907c0.741,-0 1.388,0.343 1.958,0.907c0.539,0.644 0.855,1.379 0.855,2.212l0,12.453c0,2.24 0.626,3.992 1.844,5.265c1.236,1.347 2.862,1.971 4.77,1.971c0.901,-0 1.744,-0.128 2.533,-0.497c0.786,-0.309 1.52,-0.805 2.084,-1.42c0.557,-0.609 1.059,-1.4 1.394,-2.313c0.33,-0.842 0.55,-1.865 0.55,-3.006l-0,-12.453c-0,-0.834 0.269,-1.571 0.805,-2.212c0.526,-0.57 1.175,-0.907 1.957,-0.907c0.74,-0 1.388,0.343 1.956,0.907c0.54,0.644 0.857,1.379 0.857,2.212l-0,12.453c-0,1.141 0.169,2.163 0.498,3.005c0.336,0.914 0.837,1.706 1.395,2.314c0.566,0.616 1.299,1.112 2.088,1.422l0.012,0.005Z" style="fill:#111;fill-rule:nonzero;"/><path d="M169.877,40.544c0.674,-0.487 1.345,-0.738 2.065,-0.738c0.692,-0 1.292,0.288 1.813,0.754c0.483,0.532 0.741,1.153 0.741,1.914c-0,0.673 -0.17,1.205 -0.432,1.64c-0.327,0.459 -0.692,0.862 -1.105,1.167c-0.258,0.169 -0.604,0.385 -0.999,0.6l-0.002,0.001c-0.391,0.216 -0.933,0.428 -1.569,0.641c-0.698,0.219 -1.443,0.438 -2.34,0.545l-0.031,0.005c-0.906,0.166 -1.964,0.219 -3.172,0.219c-1.889,0 -3.58,-0.321 -5.169,-1.082c-1.598,-0.765 -2.999,-1.745 -4.198,-3.056c-1.2,-1.31 -2.099,-2.785 -2.748,-4.533l-0.005,-0.011c-0.701,-1.754 -1,-3.617 -1,-5.587c-0,-1.97 0.35,-3.776 1.052,-5.526c0.701,-1.699 1.602,-3.179 2.805,-4.492c1.147,-1.253 2.495,-2.235 4.089,-2.998c1.541,-0.704 3.179,-1.084 4.967,-1.084c1.73,-0 3.364,0.377 4.848,1.133c1.499,0.766 2.85,1.692 3.949,2.892c1.099,1.201 1.949,2.568 2.599,4.096c0.597,1.522 0.947,3.099 0.947,4.676c-0,1.107 -0.364,2.015 -1.008,2.718c-0.628,0.684 -1.433,1.025 -2.375,1.025l-15.486,0c-0.144,0 -0.281,0.062 -0.377,0.171c-0.095,0.108 -0.139,0.253 -0.12,0.396c0.112,0.87 0.447,1.617 0.958,2.363c0.447,0.729 1.006,1.339 1.678,1.826c0.661,0.482 1.379,0.901 2.148,1.145l0.011,0.004c0.777,0.297 1.606,0.419 2.435,0.419c1.248,0 2.279,-0.122 3.093,-0.36c0.85,-0.247 1.469,-0.505 1.926,-0.873l0.012,-0.01Zm-5.238,-16.229c-0.904,-0 -1.753,0.185 -2.542,0.555c-0.77,0.361 -1.482,0.783 -2.088,1.323c-0.66,0.544 -1.161,1.151 -1.55,1.818c-0.452,0.742 -0.73,1.422 -0.842,2.162c-0.022,0.145 0.02,0.292 0.116,0.402c0.095,0.111 0.234,0.175 0.38,0.175l13.103,0c0.148,0 0.288,-0.065 0.383,-0.177c0.095,-0.113 0.136,-0.261 0.112,-0.407c-0.111,-0.67 -0.384,-1.345 -0.775,-2.078c-0.393,-0.731 -0.895,-1.342 -1.507,-1.891c-0.609,-0.544 -1.326,-0.97 -2.156,-1.332c-0.839,-0.367 -1.737,-0.55 -2.634,-0.55Z" style="fill:#111;fill-rule:nonzero;"/><path d="M183.425,8.401c0,-0.833 0.268,-1.569 0.853,-2.207c0.523,-0.571 1.175,-0.912 1.959,-0.912c0.741,-0 1.389,0.343 1.957,0.909c0.54,0.642 0.857,1.377 0.857,2.21l0,12.961c0,0.207 0.127,0.393 0.32,0.467c0.193,0.075 0.413,0.024 0.552,-0.128c0.543,-0.593 1.385,-1.236 2.521,-1.883c1.121,-0.641 2.491,-0.953 4.101,-0.953c1.686,-0 3.322,0.378 4.86,1.083c1.547,0.766 2.896,1.747 4.096,3.003c1.2,1.312 2.101,2.79 2.801,4.54c0.701,1.753 1.051,3.557 1.051,5.529c0,1.974 -0.35,3.838 -1.001,5.592c-0.703,1.754 -1.602,3.287 -2.705,4.548c-1.148,1.307 -2.496,2.287 -4.042,3.051c-1.536,0.756 -3.169,1.08 -4.853,1.08c-1.762,-0 -3.183,-0.312 -4.307,-0.955l-0.01,-0.005c-1.191,-0.649 -2.088,-1.297 -2.733,-1.947c-0.143,-0.145 -0.359,-0.188 -0.547,-0.111c-0.188,0.078 -0.311,0.261 -0.311,0.464c-0,0.273 -0.089,0.592 -0.214,0.865c-0.134,0.294 -0.311,0.587 -0.535,0.83l-0.001,0.002c-0.262,0.287 -0.522,0.478 -0.826,0.62l-0.03,0.015c-0.332,0.183 -0.668,0.222 -1.001,0.222c-0.778,-0 -1.427,-0.284 -1.946,-0.898l-0.027,-0.029c-0.58,-0.585 -0.839,-1.318 -0.839,-2.193l0,-35.77Zm5.107,24.619c0,1.251 0.166,2.381 0.547,3.45c0.384,1.082 0.933,1.981 1.591,2.76c0.669,0.79 1.503,1.402 2.451,1.828c0.941,0.484 1.998,0.671 3.113,0.671c1.114,0 2.117,-0.243 3.12,-0.73l0.01,-0.005c0.939,-0.482 1.766,-1.087 2.484,-1.933c0.658,-0.778 1.205,-1.677 1.591,-2.755c0.382,-1.014 0.6,-2.09 0.6,-3.286c0,-1.138 -0.218,-2.214 -0.602,-3.232l-0.008,-0.022c-0.435,-1.01 -0.979,-1.899 -1.632,-2.673l-0.013,-0.015c-0.715,-0.78 -1.538,-1.381 -2.473,-1.861c-0.951,-0.49 -1.957,-0.735 -3.077,-0.735c-1.111,0 -2.165,0.242 -3.107,0.667l-0.023,0.011c-0.936,0.482 -1.76,1.084 -2.421,1.805l-0.013,0.016c-0.656,0.777 -1.205,1.676 -1.588,2.694l-0.003,0.008c-0.382,1.074 -0.547,2.146 -0.547,3.337Z" style="fill:#111;fill-rule:nonzero;"/><path d="M258.868,44.171c-0,0.882 -0.314,1.618 -0.853,2.207l-0.013,0.015c-0.517,0.612 -1.163,0.898 -1.895,0.898c-0.78,-0 -1.429,-0.284 -1.947,-0.898l-0.027,-0.029c-0.58,-0.585 -0.841,-1.318 -0.841,-2.193l0,-12.452c0,-2.178 -0.673,-3.932 -1.893,-5.263l-0.008,-0.009c-1.234,-1.285 -2.803,-1.965 -4.711,-1.965c-0.893,0 -1.786,0.183 -2.565,0.488l-0.03,0.013c-0.786,0.368 -1.512,0.86 -2.074,1.473c-0.558,0.608 -1.057,1.399 -1.392,2.249l-0.004,0.012c-0.329,0.901 -0.497,1.922 -0.497,3.002l-0,12.452c-0,0.882 -0.314,1.618 -0.852,2.208l-0.013,0.014c-0.517,0.614 -1.163,0.898 -1.898,0.898c-0.777,-0 -1.426,-0.282 -1.945,-0.898l-0.027,-0.029c-0.578,-0.585 -0.839,-1.317 -0.839,-2.193l-0,-12.452c-0,-1.08 -0.219,-2.101 -0.548,-3.002l-0.004,-0.011c-0.333,-0.85 -0.836,-1.642 -1.392,-2.25c-0.562,-0.614 -1.236,-1.104 -2.022,-1.473l-0.031,-0.013c-0.783,-0.306 -1.619,-0.488 -2.514,-0.488c-1.907,0 -3.475,0.678 -4.709,1.962c-1.276,1.276 -1.904,3.031 -1.904,5.275l-0,12.452c-0,0.882 -0.314,1.617 -0.853,2.207c-0.567,0.619 -1.219,0.913 -1.96,0.913c-0.779,-0 -1.428,-0.284 -1.948,-0.898l-0.026,-0.029c-0.58,-0.585 -0.839,-1.318 -0.839,-2.193l-0,-11.83c-0,-1.965 0.295,-3.822 0.996,-5.462l0.005,-0.012c0.65,-1.638 1.549,-3.059 2.649,-4.26c1.091,-1.193 2.382,-2.115 3.87,-2.765c1.491,-0.653 3.03,-0.977 4.719,-0.977c1.685,-0 3.323,0.38 4.909,1.138c1.545,0.762 2.89,1.853 4.036,3.161c0.096,0.11 0.236,0.173 0.382,0.172c0.146,-0.002 0.285,-0.067 0.379,-0.179c1.148,-1.36 2.494,-2.397 3.988,-3.159c1.487,-0.756 3.171,-1.133 4.953,-1.133c1.589,-0 3.128,0.325 4.615,0.977c1.49,0.651 2.782,1.574 3.926,2.713c1.1,1.202 1.997,2.618 2.645,4.253c0.652,1.7 1.002,3.562 1.002,5.533l-0,11.83Z" style="fill:#111;fill-rule:nonzero;"/><path d="M272.956,44.171c0,0.882 -0.312,1.617 -0.851,2.207c-0.568,0.619 -1.219,0.913 -1.962,0.913c-0.778,-0 -1.427,-0.284 -1.945,-0.898l-0.027,-0.029c-0.58,-0.585 -0.839,-1.318 -0.839,-2.193l-0,-21.621c-0,-0.833 0.268,-1.57 0.852,-2.207c0.523,-0.572 1.174,-0.912 1.959,-0.912c0.741,-0 1.389,0.343 1.958,0.908c0.54,0.643 0.855,1.378 0.855,2.211l0,21.621Zm-6.35,-32.713c-0,-1.059 0.321,-1.967 1.059,-2.773c0.677,-0.741 1.486,-1.14 2.478,-1.14c0.945,0 1.75,0.399 2.471,1.132c0.697,0.815 1.067,1.722 1.067,2.781c-0,1.109 -0.366,2.017 -1.058,2.774c-0.722,0.789 -1.532,1.138 -2.48,1.138c-0.986,0 -1.794,-0.341 -2.467,-1.126l-0.022,-0.023c-0.735,-0.754 -1.048,-1.66 -1.048,-2.763Z" style="fill:#111;fill-rule:nonzero;"/><path d="M302.03,33.023c-0,-1.13 -0.218,-2.2 -0.544,-3.211l-0.008,-0.023c-0.383,-1.018 -0.879,-1.914 -1.537,-2.692c-0.66,-0.785 -1.486,-1.39 -2.369,-1.873c-0.901,-0.49 -1.912,-0.74 -3.038,-0.74c-1.122,0 -2.191,0.251 -3.088,0.74c-0.884,0.483 -1.656,1.087 -2.318,1.873c-0.662,0.783 -1.213,1.687 -1.543,2.711c-0.378,1.007 -0.543,2.081 -0.543,3.215l-0,11.15c-0,0.882 -0.316,1.619 -0.855,2.207c-0.566,0.62 -1.217,0.912 -1.958,0.912c-0.78,0 -1.43,-0.282 -1.949,-0.897l-0.027,-0.03c-0.578,-0.583 -0.839,-1.317 -0.839,-2.192l0,-11.15c0,-1.971 0.3,-3.778 1.001,-5.529c0.7,-1.751 1.601,-3.228 2.801,-4.542c1.199,-1.255 2.598,-2.235 4.194,-3c1.592,-0.705 3.284,-1.086 5.126,-1.086c1.789,0 3.482,0.381 5.073,1.086c1.595,0.765 2.992,1.744 4.189,3.053c1.204,1.313 2.105,2.793 2.806,4.491c0.7,1.751 1.052,3.556 1.052,5.527l-0,11.15c-0,0.882 -0.315,1.619 -0.853,2.207c-0.568,0.621 -1.218,0.912 -1.96,0.912c-0.78,0 -1.429,-0.281 -1.947,-0.897l-0.028,-0.03c-0.58,-0.584 -0.838,-1.317 -0.838,-2.192l-0,-11.15Z" style="fill:#111;fill-rule:nonzero;"/></g><g><path d="M56.384,7.658c0.043,0 0.085,-0.014 0.119,-0.04l0.543,-0.421c1.44,-1.112 2.848,-1.752 4.578,-2.077c0.864,-0.164 2.564,-0.179 3.329,-0.032c1.905,0.37 3.493,1.261 4.942,2.77c1.452,1.512 2.274,3.116 2.618,5.112c0.123,0.708 0.125,1.702 0.026,6.424c-0.043,2.095 -0.056,3.516 -0.035,3.803c0.004,0.05 0.012,0.082 0.016,0.097l0.022,0.045l0.027,0.033c0.099,0.097 1.684,1.04 4.249,2.517c3.795,2.186 4.012,2.327 4.968,3.322c1.213,1.261 2.006,2.858 2.376,4.767c0.167,0.861 0.182,2.525 0.03,3.255c-0.315,1.512 -0.926,2.771 -1.973,4.062c-1.032,1.273 -2.589,2.378 -4.18,2.966l-0.499,0.185c-0.076,0.028 -0.126,0.1 -0.127,0.18l-0.01,1.491c-0.01,1.607 -0.064,2.021 -0.423,3.183c-0.554,1.799 -1.751,3.523 -3.17,4.561c-0.634,0.462 -1.732,1.019 -2.561,1.298c-1.399,0.473 -2.704,0.64 -3.989,0.511c-0.988,-0.098 -1.946,-0.377 -2.877,-0.838c-0.605,-0.297 -0.841,-0.435 -5.184,-2.998l-2.819,-1.662c-0.059,-0.035 -0.132,-0.036 -0.192,-0.003l-3.794,2.113c-4.03,2.242 -4.415,2.448 -5.093,2.683c-0.835,0.29 -1.305,0.37 -2.338,0.403c-0.847,0.026 -1.07,0.015 -1.678,-0.093c-1.576,-0.277 -3.039,-0.87 -4.233,-1.715c-0.599,-0.426 -1.649,-1.532 -2.057,-2.168c-1.122,-1.754 -1.657,-3.737 -1.566,-5.818c0.017,-0.416 0.047,-0.851 0.067,-0.967l0,-0.001c0.037,-0.219 -0.002,-0.318 -0.057,-0.378l-0.057,-0.048l-0.079,-0.039c-0.419,-0.149 -1.234,-0.54 -1.712,-0.82c-0.754,-0.441 -1.214,-0.802 -1.898,-1.487c-2.118,-2.12 -3.007,-4.819 -2.533,-7.688c0.258,-1.558 0.819,-2.967 1.642,-4.12c0.395,-0.554 1.238,-1.407 1.795,-1.82c0.413,-0.304 4.433,-2.78 6.823,-4.2l0.963,-0.574c0.059,-0.035 0.095,-0.099 0.094,-0.167l-0.038,-4.604c-0.043,-4.98 -0.035,-5.276 0.245,-6.402c0.396,-1.587 1.193,-2.949 2.487,-4.251c1.527,-1.54 3.053,-2.384 4.923,-2.714c0.947,-0.167 2.591,-0.13 3.541,0.083c1.507,0.337 2.966,1.012 4.261,1.969l0.365,0.268c0.034,0.028 0.077,0.044 0.123,0.044Zm13.203,42.326c1.026,-0.359 1.693,-1.031 2.141,-2.173c0.2,-0.513 0.247,-1.323 0.11,-1.888c-0.174,-0.705 -0.415,-1.187 -1.256,-1.861c-0.798,-0.641 -2.163,-1.468 -4.593,-2.879c-4.408,-2.56 -4.556,-2.646 -5.071,-3.207c-0.517,-0.563 -0.723,-1.074 -0.723,-1.794c0,-0.552 0.146,-1.019 0.473,-1.527c0.321,-0.496 0.587,-0.743 1.059,-0.978c0.497,-0.246 0.995,-0.329 1.511,-0.251c0.896,0.138 0.895,0.148 5.727,2.924c2.01,1.155 3.848,2.185 4.083,2.29c0.78,0.346 1.589,0.524 2.375,0.527c0.691,0.003 0.739,-0.009 1.132,-0.203c0.754,-0.369 1.603,-1.394 1.865,-2.255c0.248,-0.817 0.205,-1.745 -0.106,-2.426c-0.272,-0.601 -0.916,-1.216 -2.108,-1.979c-0.472,-0.301 -4.266,-2.526 -6.715,-3.938c-1.942,-1.117 -2.276,-1.369 -2.622,-2.122c-0.372,-0.811 -0.356,-0.758 -0.301,-5.872c0.029,-2.558 0.033,-5.028 0.01,-5.488c-0.076,-1.558 -0.312,-2.244 -0.964,-2.918c-1.305,-1.351 -3.784,-1.417 -5.02,-0.142c-0.564,0.582 -0.898,1.286 -1.125,2.398c-0.104,0.513 -0.118,0.892 -0.167,5.619c-0.041,3.849 -0.069,5.121 -0.129,5.494c-0.198,1.22 -1.036,2.162 -2.157,2.409c-1.71,0.375 -3.233,-0.668 -3.524,-2.411c-0.069,-0.419 -0.071,-1.134 -0.031,-5.002c0.025,-2.504 0.026,-4.944 0.002,-5.421c-0.077,-1.591 -0.308,-2.266 -0.964,-2.945c-1.305,-1.35 -3.784,-1.417 -5.02,-0.141c-0.562,0.581 -0.896,1.281 -1.126,2.397c-0.108,0.519 -0.118,0.841 -0.159,5.763c-0.028,3.432 -0.059,5.228 -0.099,5.409c-0.233,1.012 -0.763,1.752 -1.629,2.275c-0.207,0.124 -1.063,0.639 -1.903,1.145c-0.84,0.507 -2.377,1.419 -3.416,2.029c-2.77,1.625 -3.486,2.113 -4.002,2.697c-0.464,0.525 -0.695,1.184 -0.695,2.02c-0.001,0.929 0.403,1.857 1.145,2.612c0.895,0.915 1.951,1.063 3.767,0.465c0.698,-0.23 1.3,-0.544 3.538,-1.863c2.198,-1.293 2.567,-1.505 4.252,-2.452c1.228,-0.691 1.596,-0.85 2.233,-0.946c1.075,-0.162 1.982,0.259 2.602,1.204c0.376,0.575 0.505,1.021 0.477,1.676c-0.018,0.432 -0.044,0.542 -0.209,0.905c-0.204,0.442 -0.622,0.953 -1.007,1.227c-0.341,0.243 -1.163,0.72 -3.984,2.321c-3.173,1.8 -3.881,2.221 -4.712,2.804c-1.066,0.747 -1.471,1.263 -1.716,2.142c-0.155,0.555 -0.098,1.538 0.117,2.032c0.342,0.788 1.109,1.603 1.821,1.944c0.393,0.188 0.946,0.329 1.264,0.329c0.591,0 1.725,-0.342 2.576,-0.782c0.582,-0.302 2.824,-1.553 5.397,-3.012c3.163,-1.792 3.269,-1.855 4.186,-1.86c0.901,-0.006 1.452,0.201 2.901,1.053c7.12,4.184 7.926,4.61 8.777,4.769c0.505,0.093 1.198,0.036 1.712,-0.143Z" style="fill:#111;fill-rule:nonzero;"/></g></g></g></svg>