/* XPM */
static char * webmin_mini_xpm[] = {
"16 16 10 1",
" 	c None",
".	c #020204",
"+	c #8E8E8C",
"@	c #565654",
"#	c #E2E2E4",
"$	c #3A3A3C",
"%	c #C6C6C4",
"&	c #1E1E1C",
"*	c #AAAAAC",
"=	c #727274",
"                ",
"                ",
"  ..   ..   ..* ",
"  ..  %..   ..  ",
"  ..  ...  @.&  ",
"  ..  ...  ..   ",
"  .. %. .  ..   ",
"  .. .. . @.*   ",
"  .. .$ . ..    ",
"  @.%.  . .&    ",
"  @...  .@.     ",
"  *..@  ...     ",
"  %..   ..%     ",
"   ..   ..      ",
"                ",
"                "};
